/* XPM */
static char *f5093ed9f18d4bcd8b6543718b3619ceDXgVEAMisvC8CS1L[] = {
/* columns rows colors chars-per-pixel */
"64 64 144 2 ",
"   c #020000",
".  c #090707",
"X  c #0C0B0B",
"o  c #100F0F",
"O  c #141313",
"+  c #191717",
"@  c #1C1B1B",
"#  c #211E1E",
"$  c #242424",
"%  c #282525",
"&  c #2B2B2B",
"*  c #343333",
"=  c #393737",
"-  c #3B3A3A",
";  c #403F3F",
":  c #444444",
">  c #484646",
",  c #4C4B4B",
"<  c #504F4F",
"1  c #545353",
"2  c #585757",
"3  c #5C5B5B",
"4  c #605F5F",
"5  c #646363",
"6  c #686767",
"7  c #6C6B6B",
"8  c #706F6F",
"9  c #747373",
"0  c #787777",
"q  c #7C7B7B",
"w  c #807F7F",
"e  c #838383",
"r  c #888787",
"t  c #8C8B8B",
"y  c #908F8F",
"u  c #908F8F",
"i  c #909090",
"p  c #919090",
"a  c gray57",
"s  c #929292",
"d  c #939292",
"f  c #939393",
"g  c #949393",
"h  c gray58",
"j  c #959494",
"k  c #959595",
"l  c #969595",
"z  c gray59",
"x  c #979797",
"c  c #939393",
"v  c #989797",
"b  c #989797",
"n  c #989898",
"m  c gray60",
"M  c #9A9999",
"N  c #9A9A9A",
"B  c #9B9A9A",
"V  c gray61",
"C  c #9D9C9C",
"Z  c #9D9D9D",
"A  c gray62",
"S  c #9F9E9E",
"D  c #9F9F9F",
"F  c #9C9C9C",
"G  c #A09F9F",
"H  c #A0A0A0",
"J  c #A1A0A0",
"K  c gray63",
"L  c #A2A1A1",
"P  c #A2A2A2",
"I  c gray64",
"U  c #A4A4A4",
"Y  c gray65",
"T  c #A7A6A6",
"R  c #A7A7A7",
"E  c #A4A4A4",
"W  c #A8A7A7",
"Q  c gray66",
"!  c #A9A8A8",
"~  c #A9A9A9",
"^  c #A9AAAA",
"/  c #AAAAAA",
"(  c gray67",
")  c #ACACAC",
"_  c #A9A9A9",
"`  c #B0AFAF",
"'  c gray69",
"]  c #B4B4B4",
"[  c gray71",
"{  c #B3B3B3",
"}  c #B8B7B7",
"|  c #BCBCBC",
" . c #C3C3C3",
".. c #C5C5C5",
"X. c #C6C6C6",
"o. c gray78",
"O. c #C4C4C4",
"+. c #CACACA",
"@. c gray80",
"#. c #CDCCCC",
"$. c gray81",
"%. c #CCCCCC",
"&. c LightGray",
"*. c gray84",
"=. c #D7D7D7",
"-. c #D4D4D4",
";. c gray85",
":. c #DBDADA",
">. c gray86",
",. c gainsboro",
"<. c #DFDFDF",
"1. c #DCDCDC",
"2. c #E0DFDF",
"3. c gray88",
"4. c #E2E2E2",
"5. c gray89",
"6. c #E4E4E4",
"7. c gray90",
"8. c #E6E5E5",
"9. c #E6E6E6",
"0. c #E7E7E7",
"q. c #E3E3E3",
"w. c gray91",
"e. c #E9E9E9",
"r. c #EAEAEA",
"t. c gray92",
"y. c #ECECEC",
"u. c gray93",
"i. c #EEEEEE",
"p. c #EFEFEF",
"a. c #ECECEC",
"s. c #F1F1F1",
"d. c gray95",
"f. c #F3F3F3",
"g. c #F4F4F4",
"h. c gray96",
"j. c #F6F6F6",
"k. c gray97",
"l. c #F4F4F4",
"z. c #F8F8F8",
"x. c #F9F9F9",
"c. c #FDFDFD",
"v. c white",
"b. c #FFFFFF",
/* pixels */
"h.h.h.h.l.l.l.j.j.l.a > * O O e ^ W W ^ W W ^ W W ^ W W / t O             % *           $ : 6 G / ^ / q 3 1.z.h.h.h.l.h.h.l.h.h.",
"f.f.f.f.l.l.l.l.l.D 1 3 o X 8 Y P W ^ Y Y ^ Y ^ ^ Y W ^ G =             .   : 1 O           X * 0 W W W r 7 1.z.l.l.l.l.l.l.l.l.",
"f.f.f.f.s.s.s.l.@.: : O   = K 7 6 ^ W W ^ ^ Y W ^ W ^ ^ g O     .           # G 9 @             o 3 G ^ W 8 6 u =.f.p.f.f.f.f.p.",
"y.y.y.y.u.p.u.X.3 $     @ q 7 o 3 ^ ^ ^ W W ^ W ^ ^ W W g O           .   . & b ^ p 4 * O + o   o ; G ^ ^ Y r 7 5 =.p.y.y.y.p.y.",
"t.t.t.t.y.1.k 1 ; o   - s s @ O t ^ W W W ^ W W t v ^ ^ p O             o 4 r b W ^ / G g z 9 3 u G W ^ W t & 7 5 q t.t.t.t.t.t.",
"9.t.t.9.,.e 5 q +   O i ) t o # B ^ ^ W W Y ^ ^ v 7 B ^ G *             , E 8 5 7 q G ^ ^ ^ ^ ^ W ^ ^ W / 3   X & # B t.t.0.0.0.",
"9.t.%.9 > 7 D -     @ x R 1   1 ^ W Y ^ ^ Y ^ W ^ 6 p ^ ^ 9 X     .     1 ` 9 g W t 8 w B / W W ^ ^ W ^ G *         + v q.9.9.9.",
"o.B -   * B t o     2 ^ t +   4 ^ W ^ W W ^ W Y 9 5 e Y ^ G *           * G t u 9.-.' e 2 u W ^ W W W ^ t O           + u =.q.4.",
"@ X . X 9 ^ 1     @ a ^ 3   @ t ^ W W Y ^ W ^ 0 5 ) t e Y ^ 2     .     + B g 7 f.x.,.o.P 2 7 G W ^ W W 1               * 5 %.2.",
"  & 1 , P x @   @ 9 ^ Z *   2 ^ ^ Y W ^ W ^ D 3 ;.u.o.t 7 B t O         + v W 6 2.b.b.t.o.Y 6 6 W W ^ G :               2 8 w 1.",
"1 > 1 Z ^ 9 X o r R ) k O O t ^ W ^ ^ W W W 7 r b.b.y.$.P 0 e @         O u W 6 ) b.b.b.t.o.{ 1 9 Y ^ ^ v 3 , X         = v < u ",
"r , z ^ ^ 1   - D ) ^ 7 . + x ^ W ^ Y W ^ p 7 q.b.b.b.x.=.E 9 ,     o     5 / r e b.b.b.b.0.o.Y 1 7 W W ^ / G =         o 0 u : ",
", 0 ^ ^ Z *   2 ^ W ^ 1   = D ^ W ^ Y W ^ 0 v b.b.b.b.b.x.&.7 5 o O ;     < ! G 3 =.b.b.b.b.t.o.^ 2 5 G ^ W / 0 o . : $ ; < W q ",
"& x Z t a o X 0 ^ Y Y >   3 ^ ^ W ^ ^ ^ D 3 ;.b.b.b.b.b.b.y.p 5 # . 1 #   # v ` 0 B b.b.b.b.b.t.O.' q 9 W W ^ W 8 # 9 4 2 : 1 G ",
"3 ^ 8 4 9 . # B ^ ^ v @   4 ^ W W W ^ ^ r e b.b.b.b.b.b.b.x.| 1 ; o 1 2   O g / p t b.b.b.b.b.b.0.o.' 2 8 ^ W W ! 8 4 u * 4 $ w ",
"t A * 2 2   , ^ W / 9 . O t ^ ^ ^ W W / 7 ' b.b.b.b.b.b.b.b.,.D 5 0 w b ; # b / D 3 =.b.b.b.b.b.b.t.o./ < 8 W W W g $ 7 1 : 9 : ",
") x + 2 2 . 9 ^ ^ ^ 1   O z ^ G Y W W g w f.b.b.b.b.b.b.b.b.x.o.1 q / / z w Y Y ^ 9 p b.b.b.b.b.b.b.t.o.^ < 0 ^ ^ G 4 = , 1 8 e ",
") q $ , = # m ^ W ^ 1   * D ^ 7 z ^ W 5 ' b.b.b.b.b.b.b.b.b.b.4.W 6 v / ^ ^ ^ ^ ^ p z b.b.b.b.b.b.b.b.t.o.D , v ^ ^ / 0 % q , 0 ",
"N *   : O & Z ^ ^ ^ 1   2 / G < v ^ t 6 f.b.b.b.b.b.b.b.b.b.b.x.-.9 > 3 z ^ ^ Y ^ t z b.b.b.b.f.x.b.b.b.t. .0 5 G 7 v W 7 3 r 3 ",
"i O   ; + O k ^ Y ^ 1   , ^ 0 5 W ^ 6 ` b.b.b.b.b.b.b.b.b.b.x.;.W t g 4 1 6 t Y / z 5 | ;.;.| ^ h.b.b.b.b.t.) 2 e 3 0 ^ D , e 7 ",
"r o   : O = H ^ ^ ^ 1   @ t : e ^ D 3 q.b.b.b.b.b.b.b.b.x.=.P Y ,.y.,.+.) e 2 3 0 u , 5 Z Z  .f.b.b.b.b.b.h.o.5 : u 9 Y ^ 9 7 E ",
",     : O 2 ^ ^ W ^ 1   = e : 9 ^ e t b.b.b.b.b.b.b.x.=.^ Y ;.c.b.b.b.h.4.-.| B 7 9 6 q s.b.c.b.b.b.b.b.b.b.t.k e | 8 z ^ v 1 D ",
";     : O 1 ^ ^ ^ ^ 1   2 t 9 9 W 7 [ b.b.b.b.b.b.#.B W ,.b.b.b.b.b.b.b.b.b.y.4.4.4.4.9.c.b.b.c.b.b.b.b.b.b.z.P o.o.7 t ^ W 6 g ",
":     < = 1 ^ ^ Y ^ 1   2 3 q 7 g 9 4.b.b.b.b.b.b.y.4.x.b.b.b.b.b.b.b.b.b.b.b.b.b.b.b.b.b.b.b.u.| Y Y z e q 9 = -.2.w 6 ^ W G Y ",
";     2 0 6 ^ ^ W ^ 1   1 6 =.| 5 7 l.b.c.b.b.b.b.c.b.b.c.c.b.b.b.b.b.b.b.b.b.b.b.b.b.b.b.y.| N P ] 7 &       O 0 u t 1 Z ^ ^ ^ ",
":     2 ^ G ^ W W ^ 1   : 9 f.s., q b.p.,.<.| Z Z Z Z Z Z | s.b.b.b.b.b.b.b.b.b.b.b.b.b. .t x 9 & @       +     O , * 3 p P Y Y ",
":     2 / ^ W ^ ^ ^ 1   = B b.c.| v E P ) ^ X.3.3.3.,.3.3. .R =.x.b.b.b.b.b.b.b.b.b.x. .Y > @           @ ' r $     X & > , x ^ ",
";     2 ^ ^ W Y ^ ^ 9 . O | $.Z P ^ +.P w w w w w w w q ] l.0.R o.b.b.b.b.b.b.b.b.b.h. .2 X               w c.;.2       O 0 ^ ^ ",
":     * D ^ W ^ Y ^ z @ @ Y | | | / , o                 o , r *.#.h.b.b.b.b.b.b.b.b.b.,.# 5 #   > 5 7 @ X , t.b.9.,   X w | ^ ^ ",
":     O k ^ ^ Y W ^ ^ > # g ; $ @ o   @ o                     $ D h.b.b.b.b.b.b.b.b.b.y.Z O.@   1 >.| , , t f.b.b.q X - ^ | ^ Y ",
";     O t ^ Y ^ W D W 3 @ { 3 X   @ t =.P X                 > s =.x.b.b.b.b.b.b.b.b.b.b.c.p.r > $ 6 3 , , t h.b.b.e , 7 D { ^ Y ",
"7 X     3 ^ ^ Y ^ 7 , - X O   . , | c.b.5.&     > 0 4 0 + - | c.b.b.b.b.b.b.b.b.b.b.b.b.c.c.&.4 , , > > 6 9.b.b.b.o.' 9 p ^ W ^ ",
"A =     > ^ R ^ ^ A 7 5 *     2 t.b.b.b.c.) , $ 8 r.l.| , 1 | b.b.b.b.b.b.b.b.b.b.b.x.b.x.b.h.) 3 > 2 7 o.z.5.z.b.b.,.9 a ^ Y Y ",
") 1     $ N ^ R ^ ' | X.4 o   w b.b.b.b.c.-.5 > , w Z 3 > 6 9.b.b.b.b.b.h.x.b.b.f.f.4.4.t.,.q.| 5 : D $.3.| ^ u.x.h.;.8 0 ^ Y ^ ",
") 8 o   X 1 A ^ ^ P ' | 8 w ; @ [ b.b.b.c.c.| 6 , > > , 5  .b.h.f.t.,.,.=.=.,.,.&.o.| e e )  .{ P D e q 0 D 3.=.=.=.o.P 2 G ^ ^ ",
"U x > +   O k R D ^ ^ ' q 0 ' 3 4 s.b.c.c.c.c.0.' U r a =.3.3.;.o.| | | { [ |  .| [ ' | P q ^ |  .[ ]  .| | | | ] ] | | e q ^ W ",
": i 1 =   O i x 1 A ^ ^ k 8 | | w 3.b.c.j.<.) m A N e r | | | | | [ ) | | { { [ |  .[ [ | t r {  .| ) ] | ] | | | ) | | P 7 ^ W ",
"  - 7 : +   - t @ 7 Y ^ D 1 ' X.-.c.l.r.&.t 9 N R R ) ] | | ) ) | | | { [ | | ) ' | | ) ' E 9 { | | | ' ) | ^ | | | ^ | Y 7 Y ^ ",
"  X 7 , 1 O X 2 X @ x ^ ) 8 w p.,.3.=.X. .| } ' [ | | [ [ | | { [ | | | ' | | | ` | | | / / B | ^ | |  .' | ] ] |  .[ ) | 8 g ^ ",
"    , 0 > 3 X X   X 7 ^ ^ A 1 |  .{ | ] [ | | | [ ' } | [ ) | | { [ | | | { | | | | | | | ' | | | ' | | ] ] | ] [ | | { | 9 p ^ ",
"%   O 9 7 > *       + a ) ^ 9 0 | Y { | { { | |  .| ) [ | | ) [ | ) [ | | | | o.o. .o. .O.O.O.O.o. . .o. . .o.o. .o. . .| 9 u ^ ",
",     @ u 3 5 =       * q ^ x 2 ^ | ) ^ | { ) { | | | [ | | | [  .X.o.;.,.&.2.y.f.9.h.h.0.l.l.q.f.f.4.f.t.t.h.f.q.l.t.0.;.q p ^ ",
",       - r > r -       < ^ R 6 5 [ | [ ' | | ] ) | | | | o.o.;.4.h.h.h.b.f.x.b.b.z.4.,.1.q.c.c.b.b.b.b.b.x.b.b.b.b.b.x.x.r p ^ ",
"0 X     X 5 + - r -     + i ) Z 4 7 |  .| { [ |  .+.;.4.4.t.h.h.b.b.b.b.b.b.y.&.E G W ^ W Y | p.b.b.b.b.b.b.b.b.b.b.b.b.b.p p ^ ",
"P +       $ X   = a -     2 W ^ D 1 P | |  .o.=.4.f.h.b.b.b.b.b.b.b.b.b.b.4.B E ' w u g g | | G f.b.b.b.b.b.b.b.b.b.b.b.b.p p ^ ",
"P +       X &   X 6 a -   O 7 D ^ 0 e &.;.4.f.h.b.b.b.b.b.b.b.b.b.b.b.b.,.u B t 5 t t t t w | r W b.b.b.b.b.b.b.b.b.b.b.b.e p ^ ",
"{ =       + e =   X - t - X . 3 ^ g 6 ;.h.b.b.b.b.b.b.b.b.b.b.b.b.b.b.b.G B 7 t B E E E Y p 3 e 9 ;.b.b.b.b.b.b.b.b.b.b.=.5 D ^ ",
"| 4       X 0 p @     & 7 1 X @ p ^ 7 p b.b.b.b.b.b.b.b.b.b.b.b.b.b.b.^ q | 5 P E E E E E r 7 t t B b.b.b.b.b.b.b.b.b.b.v t ^ Y ",
" .6         2 ! 1       O 5 6 @ - k Z q | c.b.b.b.b.b.b.b.b.b.b.b.b.9.4 2 7 3 g Y E E P E 8 7 u t t b.b.b.b.f.#.x.b.b.y.e G ^ ^ ",
" .D O       1 ` u #       X 2 t = 3 ^ D w a f.b.b.b.b.b.b.b.b.b.b.f.q 9 t 0 q p Y P E E P 8 0 t P 0 9.b.b.b. .e 9.b.b.| e ) ^ W ",
" ./ +       1 / W ,         + p Z 6 q ^ D 1 =.b.b.b.b.b.b.b.b.b.b.) 2 r e 2 0 u t 7 8 z Y q r 0 P 0 4.b.b.b.| D f.b.y.4 , 4 v ^ ",
"| g O       1 / / 9 O         > t z q w ^ 0 7 f.b.b.b.b.b.b.b.b.b.z | 0.1.r 9 5 t | | q D t 7 0 Y 0 4.b.b.b.b.b.b.b.Y & % % , G ",
"E $         1 ! W ^ <         , : = B e r W q ' b.b.b.b.b.b.b.b.t.g =.9.+.t B  .4.9.9.w 9 t 8 6 9 3 q.b.b.b.b.b.c.;.- & & & % 8 ",
"G +         4 ! W W 4         4 4   = t D ^ ^ r | b.b.b.b.b.b.b.%.t -.&.2.r | | ;.q.4.o.0 e 7 q B e 4.b.b.b.b.b.3.5 $ $ & % $ * ",
"E +       O u ! W ^ u O       1 t O   # u ^ W Y e [ c.b.b.b.b.b.e 0 ' v #.| G D { q.q.9.e 0 t o.< t 1.b.b.b.b.&.^ $ $ $ $ $ $ @ ",
"G +       # d ! W ^ v #       @ w #   @ 1 p W ^ Y r | x.b.b.b.b.v e B B B 9.v 9 D -.^ v 6 5 %.G e / W b.b.x.=.5 6 $ # # # # # $ ",
"v O       = G ^ W ^ W ,       . 5 < + E ` 4 7 D ^ Y r [ b.b.b.y.B $.E G $.q.' 8 { a  .,.o.| P o.;.q H c.z.Y & @ @ @ @ @ @ @ @ @ ",
"2       X 0 ^ ^ W W ^ 2       . 7 4 $ } &.} 7 1 G ^ Y r | b.b.y.D &.0.E #.q.2.} p a D D D Y t.b.<.9 H x.^ & O @ @ @ @ @ @ @ @ @ ",
";     O 3 P ^ W ^ Y P t O   .   # w < e #.$.%.9 3 z ^ W e z -.4.t.c.b.0.G u u G r.u.,.3.x.b.b.b.s.i e q $ O + @ O @ O @ O @ @ + ",
"X   X 8 ^ ^ W W W 7 3 G ; ; :   + , : > r O.$.O.e , z ^ Y p 1 0 v ' 2.p.p.2.q.p.c.c.r.3.,.,.f.b.c.-., O O O O O O O O O O O O O ",
"  @ 4 G ^ W ^ ^ u # O 0 G P 1   # : o & 1 3 p #.#.t 1 D ^ ^ 0 5 } B G w 0 ` 2.q.c.c.r.o.o.=.x.i.) , o o O o O o o O O o O O O o ",
"> g W W Y Y Y 0 * X X = G / 1   < 2     = 0 , 8 | #.5 5 P ^ Y 5 w B 7 +   o @ & 9 ] 3.,.;.<.0.6 O X o o o o o o o o o o o o o o ",
"P / W W ^ D < O . X X - G ^ 1   3 2       @ 5 5 2 t B 6 6 W ^ G 7 O               o $ $ $ $ t 5 . X o X X X X X X X X X X X o X ",
"^ W W ^ ^ 0 X . X X X 0 ^ ^ 1   2 3         X : e > 6 z , 3 G ^ D &               . . . X . ; $ . X X X X X X X X X X X X X X X "
};
