/* XPM */
static char *_2c7360236d6471ef43562d4454078d92pxUyGGsFX48JXpW[] = {
/* columns rows colors chars-per-pixel */
"64 64 237 2 ",
"   c None",
".  c #010101",
"X  c #0B0805",
"o  c #170A03",
"O  c #191A1A",
"+  c #1F1008",
"@  c #231203",
"#  c #2B1602",
"$  c #351B07",
"%  c #2B1116",
"&  c #3B230D",
"*  c #1D2323",
"=  c #262929",
"-  c #2D3133",
";  c #363838",
":  c #302C2B",
">  c #181F20",
",  c #4B2B14",
"<  c #512E11",
"1  c #653B17",
"2  c #463A35",
"3  c #6C411E",
"4  c #44403B",
"5  c #774B27",
"6  c #724933",
"7  c #3D3F40",
"8  c #374248",
"9  c #25696A",
"0  c #256967",
"q  c #25687C",
"w  c #25687A",
"e  c #414545",
"r  c #484A4A",
"t  c #4D5252",
"y  c #555555",
"u  c #5A5856",
"i  c #5B5B5B",
"p  c #575959",
"a  c #53524F",
"s  c #72584E",
"d  c #6A625D",
"f  c #5D5F60",
"g  c #595B62",
"h  c #5B6162",
"j  c #5B6568",
"k  c #636364",
"l  c #6B6B6C",
"z  c #666869",
"x  c #746E6E",
"c  c #6C6D72",
"v  c #6D7374",
"b  c #6B7279",
"n  c #747474",
"m  c #787A7C",
"M  c #7A7369",
"N  c #885832",
"B  c #8D5935",
"V  c #98653D",
"C  c #8E613A",
"Z  c #D1693E",
"A  c #D5763C",
"S  c #90574B",
"D  c #BD5150",
"F  c #B45050",
"G  c #B1544E",
"H  c #9B6947",
"J  c #89634F",
"K  c #A66C46",
"L  c #A6734A",
"P  c #A97855",
"I  c #B37D56",
"U  c #B57149",
"Y  c #C75949",
"T  c #D75948",
"R  c #C25150",
"E  c #DC5151",
"W  c #D27543",
"Q  c #E05151",
"!  c #DE853E",
"~  c #B8845A",
"^  c #BA8C4D",
"/  c #BA8B65",
"(  c #B28E74",
")  c #9F8A79",
"_  c #CE8850",
"`  c #E59649",
"'  c #E08D48",
"]  c #EEAD4E",
"[  c #C28C64",
"{  c #C88C64",
"}  c #C5946C",
"|  c #CA9468",
" . c #CB9974",
".. c #D29E75",
"X. c #D4996D",
"o. c #D7A37A",
"O. c #D6B174",
"+. c #EEB967",
"@. c #E7B26A",
"#. c #F2C873",
"$. c #DAC27D",
"%. c #1B3C8A",
"&. c #24669A",
"*. c #286697",
"=. c #266788",
"-. c #2366A8",
";. c #2965A3",
":. c #2365B8",
">. c #2764B7",
",. c #3461BC",
"<. c #23489B",
"1. c #7A7986",
"2. c #717C9A",
"3. c #4E6EB4",
"4. c #7A7CA8",
"5. c #2365C8",
"6. c #2A63C8",
"7. c #2365D1",
"8. c #2365D9",
"9. c #2B62DA",
"0. c #3363D9",
"q. c #3764C2",
"w. c #2C5CE2",
"e. c #1F62F7",
"r. c #2264E3",
"t. c #2264ED",
"y. c #2D67EA",
"u. c #336DED",
"i. c #3664EC",
"p. c #3573EC",
"a. c #397DEA",
"s. c #3678E9",
"d. c #2C65F5",
"f. c #2D6AF2",
"g. c #2364FE",
"h. c #2A64FB",
"j. c #2767F8",
"k. c #3265F3",
"l. c #326BF1",
"z. c #3868F9",
"x. c #3477F7",
"c. c #2C72F5",
"v. c #707FDB",
"b. c #5B7AEC",
"n. c #436DF6",
"m. c #4A75F7",
"M. c #5478F4",
"N. c #4A72E9",
"B. c #667DE9",
"V. c #5D69C4",
"C. c #817EA2",
"Z. c #8A7894",
"A. c #7D8586",
"S. c #7D81AE",
"D. c #3E8DCB",
"F. c #3D8DD3",
"G. c #3D8FDB",
"H. c #3E91DB",
"J. c #3D91D5",
"K. c #3D8DE5",
"L. c #3B84E9",
"P. c #3D8BE9",
"I. c #3D91E1",
"U. c #3887F5",
"Y. c #3A97F5",
"T. c #3DA4F4",
"R. c #418BD7",
"E. c #4390D1",
"W. c #7686D3",
"Q. c #5882F4",
"!. c #508CEE",
"~. c #7588E6",
"^. c #678AF3",
"/. c #7898F2",
"(. c #6E91EC",
"). c #42BEF3",
"_. c #41B3F3",
"`. c #4AAFF1",
"'. c #74B5E3",
"]. c #43C0F3",
"[. c #4BC4F5",
"{. c #56C9F6",
"}. c #72D3F6",
"|. c #848B8D",
" X c #898889",
".X c #898B93",
"XX c #938B98",
"oX c #8C9395",
"OX c #94989A",
"+X c #B3AB91",
"@X c #9795A8",
"#X c #8B8CAE",
"$X c #A49DB4",
"%X c #9BA4A6",
"&X c #A3A7A8",
"*X c #ABB3B6",
"=X c #B4B8B9",
"-X c #B0AEB3",
";X c #AF909B",
":X c #D9A985",
">X c #CEB589",
",X c #E4B48B",
"<X c #E5B895",
"1X c #E3AE87",
"2X c #D2B099",
"3X c #D6C392",
"4X c #E8D293",
"5X c #D4CEAB",
"6X c #EED0A5",
"7X c #F4E49A",
"8X c #8C92CE",
"9X c #B4B9C4",
"0X c #8599E9",
"qX c #9AA6EA",
"wX c #8EA6F0",
"eX c #A8BBEC",
"rX c #A2A8E4",
"tX c #A19EC0",
"yX c #BCC5C7",
"uX c #B6CED5",
"iX c #91DBF3",
"pX c #ABDEEF",
"aX c #A4DEF1",
"sX c #B5C7EC",
"dX c #8FE3FD",
"fX c #B0E4F3",
"gX c #C4C8C9",
"hX c #D6D7D7",
"jX c #CBD5CF",
"kX c #CAD8EB",
"lX c #D5DAEC",
"zX c #C2C9ED",
"xX c #CDE3EA",
"cX c #DAE7EB",
"vX c #D9F2EE",
"bX c #E6E8E9",
"nX c #C7EADA",
/* pixels */
"                                                                                                                                ",
"                                                                                                                                ",
"                                                                                                                                ",
"                                                                                                                                ",
"                                            F.F.R.G.R.F.F.R.                                                                    ",
"                                    F.H.K.K.L.L.a.a.a.a.L.L.P.R.H.J.                                                            ",
"                              D.G.K.!.s.p.p.k.k.l.i.n.k.u.k.p.p.a.P.I.H.                                                        ",
"                          D.G.P.a.u.y.i.i.i.0.6.6.,.,.,.6.0.i.i.k.l.p.L.P.H.                                                    ",
"                        G.K.a.p.u.u.0.,.&.=.w 9 9 9 9 9 9 q =.-.6.y.d.i.p.a.R.J.                                                ",
"                    E.I.L.p.k.d.9.&.q 9 0 0 0 0 9 9 0 0 9 0 0 0 w =.,.y.k.f.s.P.H.                                              ",
"                  E.R.L.l.k.w.>.=.=.q q q q q =.q q q =.q q q q w w =.;.7.k.j.p.L.I.                                            ",
"                R.P.x.l.k.9.>.&.&.&.&.&.&.&.&.&.&.&.&.&.&.&.&.&.&.&.&.&.;.>.t.d.l.L.I.                                          ",
"              E.K.p.f.h.9.:.-.-.-.-.-.-.-.-.-.-.-.-.-.-.-.-.-.-.-.-.-.-.-.-.:.t.g.f.a.I.                                        ",
"            E.R.a.f.h.t.5.:.:.:.:.:.:.:.:.:.:.:.:.:.:.:.:.:.:.:.:.:.:.:.:.:.:.5.t.h.u.L.I.                                      ",
"            G.a.f.h.t.7.5.5.5.5.5.5.5.5.5.5.5.5.5.5.5.5.5.5.5.5.5.5.5.5.5.5.5.5.8.j.j.u.L.H.                                    ",
"          H.L.f.h.j.8.7.5.7.7.5.7.7.7.7.7.7.7.7.7.7.7.7.7.7.7.7.7.7.7.7.7.7.7.7.7.r.h.d.p.K.D.                                  ",
"        E.P.p.d.h.t.8.8.8.8.9.7.8.8.8.8.7.8.8.8.8.8.8.8.8.8.8.8.8.8.7.8.8.8.8.7.8.8.t.g.l.a.I.                                  ",
"        H.a.l.g.g.r.r.r.r.r.s.y.r.r.r.r.r.r.r.r.r.r.r.r.r.r.r.r.r.r.r.9.y.r.r.r.r.r.t.g.h.l.L.J.                                ",
"      J.P.p.h.g.g.t.t.t.t.u.eXeX(.u.t.t.t.t.t.t.t.t.t.t.t.t.t.t.t.u.(.sXeXu.r.t.t.t.t.g.g.k.a.I.                                ",
"      R.a.f.g.g.h.k.N.b.b.N.0XcXcXeXQ.t.j.e.j.g.e.j.e.j.e.j.e.j.Q.sXbXxX0Xb.~.~.B.z.j.g.g.h.f.L.E.                              ",
"      P.p.h.g.h.B.8X@XXXXX@X8XqXkXvXxX^.g.g.g.g.g.g.g.g.g.g.j./.kXvXkXrXtXOX XZ..X$X~.h.g.g.d.a.H.                              ",
"    F.L.l.h.h.~.@Xx i u g f n @XqXxXvXxX^.g.g.g.g.g.g.g.g.g./.xXvXkXrX@Xl p y y u d  X~.z.g.g.u.P.                              ",
"    G.a.j.g.B.XXg y y y y y y d $XqXxXvXsXm.g.g.g.g.g.g.g.m.sXvXxXqX@Xi y y a a y y u  XB.h.w.<.;.8 O                           ",
"    K.p.j.z.8Xz y y p x x y y y c 8XqXvXvXwXg.g.g.g.g.g.j.wXvXxXwX8Xx y y i n Z.k p y d #Xz.%.* - - * -                         ",
"    K.u.g.m.Z.y y u OXhXhX Xu y g #XM.eXvXkXz.g.g.g.g.g.m.sXvXsXm.#Xu y u XXhXbX-Xd y y 1.M.<.r - e r 8                         ",
"  F.P.f.g.b.1.y y z hXbXbXgXd y y 4.n.M.kXcXQ.g.g.g.g.g.^.cXxXQ.z.#Xu u i =XbXbXlXx y y n b.q.j v v p h h                       ",
"  F.L.f.g.M.1.y p z gXbXbX-Xi y g 4.n.h.wXcX^.g.g.g.g.g./.cXwXg.z.C.u y u &XbXbXgXk y y 1.M.b.oXOXoXz l c z v t ;               ",
"  G.L.d.h.n.C.u p j J -X-Xx y y f 4.h.g.M.kX/.g.g.g.g.g./.kXm.g.h.W.k u a d XX&Xn y y y 4.n.^.&X|.%X%X|.m b b 8 ; -             ",
"  G.a.f.g.h.v.l y p y i u y y y 1.B.g.g.h.^.Q.g.g.g.g.g.!.Q.g.g.g.b.Z.u u y y u y y y b W.h.R.*XOX|.*X*XA.b t * * O ;           ",
"  G.L.f.g.g.n.C.k y y y y y y x v.k.g.g.g.h.g.g.g.g.g.g.g.g.g.g.g.d.v.m u y y y a a l #Xz.g.0.OX*X|.oXjXyX|.h p e : - 8         ",
"  G.L.d.g.g.h.0X$X1.k i i z 1.v.n.g.g.g.g.g.g.g.g.g.g.g.g.g.g.g.g.g.z.B.C.c f f l Z.$X9Xb.d.,.v &X*XA.%XjX*XJ r : = * > * *     ",
"  F.L.f.h.z.8X4XO.;XC.C.#X$XB.z.e.g.g.g.g.g.g.g.g.g.g.g.g.g.g.g.g.g.g.h.m.W.$X@XC.Z.o.#.+X2.b p A.*X%Xb *X*X8 ; 8 - = * * * =   ",
"  F.P.a.B.=X+.` W S g x $.5X~.n.h.h.g.e.g.g.g.g.g.g.g.g.g.g.g.g.g.g.h.z.m.0X6X@.d y H _ ^ 6 g c l &XyXoXm t 7 r y z r : * = -   ",
"    I.W.,X] A U F S s H ] 7XlXsXeXwX0X^.^.M.m.m.n.n.n.m.m.M.b.^./.0XrXeXkXbX4X] J s S K H 1 2 k g @XuX=XA.; t k  X- O * ; ; ;   ",
"    '.O.` W D D D F S K ] 7XjXhXbXbXbXbXlXlXlXlXkXlXkXlXlXlXcXbXbXbXbXbXhXjX4X] G J H C 1 & * r v A.=XyXoX; y .X: . . . ; a 7 ; ",
"    3X` A Y D R R D G Z +.3Xz v m Z.OX%X-X=X9XgXgXuXjXgXgXgXyX=X-X&XOX XM M $.] L P L 5 $ X % % v v v %X|.7 f A.X . . . * z 8 8 ",
"  O.+.A Y Y D R R D F W #.( p y a y y y u u f f f h j j k i f p p p y y a i O.@...} L 5 # X % + ; i g oXA.e i n X . . . * d r r ",
"  $.` A T E D D D F G W #.+Xj i a y y y y u p y y y y y y y u u y y y a i A.2X,X<X:XI C , X % % : e h OX|.r t l ; X . X a u t p ",
"  $.` A T Q E R D R Y ` 6XxXuX&X Xx f u u u y u u u y y u y a u i z n OX=XfXjX>X,X1X..[ 5 o + % : r a |.|.r p p j r 4 i k t z   ",
"  >X] A T E Q Q Q E W @.nXdXdXfXfXuXyX*X&XOXoX X X X.X XoXOX&X*X=XuXxXfXfXdXiX>X..:X:X..S o o % 6 I P M oXv f t t i i p t h     ",
"  +X+.! Z T E E E Y ` 5X'.{.[.[.{.}.}.iXiXaXaXaXpXpXpXpXaXaXiXdXiX}.{.{.{.[.[.S. .,X<X:XK % + S / } | ( A.OXm h y i h p h z     ",
"    3X+.' Z Z T Z ' 3X~.x.T.).).].T.).).).].].].[.].].[.[.].].].).).).).].T.Y.n.XXo.<X:XP $ 2 { ..:Xo.( i |.|.l k n p r h v     ",
"      3X$.] ' ' @.3X0Xz.h.c.T.).].].].).].].].].].].].).].T.].].].].).).T.T.g.h.V.;X<X:XI , 6  .:X .[ / u f |.z m t - ; y z     ",
"        +X5X5X5XuX(.i.g.g.g.c.T.].].].].).].].].).).).).].].].].].].].T.U.g.g.g.i.@X<X2X/ 1 6 ~ ( P K K d 8 v r k * > * t t     ",
"              `.P.p.h.g.g.g.g.c.Y.T.].].).].).).].).).).].].].].].).T.x.g.g.g.g.h.4.:Xo.I K U U H V U s i r y p h * X * p a     ",
"                I.L.u.h.g.g.g.g.g.x.T.T.).].].).).).).).].].].T.T.U.c.g.g.g.g.j.d.V./ U K [ _ X.X.1X<X:Xl r t z i p r i k 4     ",
"                  I.L.u.j.g.g.g.g.g.j.U.Y.T.T.].).).].T.T.].T.U.c.g.g.g.g.g.g.j.p.R.2.  ^ X.o.,X6X6X<X<X) u 4 r z l m n u &     ",
"                    H.P.p.c.j.g.g.g.g.g.j.c.x.Y.Y.Y.!.U.U.x.j.g.g.g.g.g.g.j.f.a.P.R.    { o.<X<X<X2X:X:X .L < # : r a 4 $ $     ",
"                      R.I.L.u.j.g.g.g.g.g.g.h.g.h.h.g.g.h.g.g.g.g.g.h.h.f.s.U.R.E.      { X.o.O...} [ [ { _ N $ @ X o @ #       ",
"                        F.I.P.s.u.k.h.g.g.g.g.g.g.g.g.g.g.g.g.g.g.j.d.p.L.!.R.          { | |  .| [ I P L V 3 @ . X @ # @       ",
"                            H.I.P.a.p.f.k.k.d.h.h.h.h.g.h.g.j.f.u.p.L.K.H.D.            { o.o.X./ ~ K V B 5 < # @ o @ o X       ",
"                                D.H.K.P.a.a.p.l.u.u.f.u.p.p.a.L.P.I.H.                    @.<X<X<X:X.. .~ H 1 < & # o . o       ",
"                                      D.H.H.I.K.K.P.P.K.K.K.H.J.D.                        o.,X,X:X:Xo...} K 1 , $ o . o #       ",
"                                                                                          o.o.o. ./ ~ ^ I V 1 $ @ X o #         ",
"                                                                                            o.{ ~ L L L H N < # # $ #           ",
"                                                                                             .| [ ~ L L H V N 3 < , #           ",
"                                                                                              | o... .( } / ~ B & #             ",
"                                                                                              | ..} / / P ~ P 5 $ @             ",
"                                                                                                ~ ~ ~ L C V C 3 $               ",
"                                                                                                      N 5 3 3                   ",
"                                                                                                                                ",
"                                                                                                                                ",
"                                                                                                                                ",
"                                                                                                                                "
};
