/* XPM */
static char *d2aa3674b7b34f88b13b4c328f009fe89strSslOJC3v6ecf[] = {
/* columns rows colors chars-per-pixel */
"64 64 256 2 ",
"   c black",
".  c #010101",
"X  c #020202",
"o  c gray1",
"O  c #040404",
"+  c gray2",
"@  c #060606",
"#  c #070707",
"$  c gray3",
"%  c #090909",
"&  c gray4",
"*  c #0B0B0B",
"=  c #0C0C0C",
"-  c gray5",
";  c #0E0E0E",
":  c gray6",
">  c #101010",
",  c #111111",
"<  c gray7",
"1  c #131313",
"2  c gray8",
"3  c #151515",
"4  c #161616",
"5  c gray9",
"6  c #181818",
"7  c #191919",
"8  c gray10",
"9  c #1B1B1B",
"0  c gray11",
"q  c #1D1D1D",
"w  c #1E1E1E",
"e  c gray12",
"r  c #202020",
"t  c gray13",
"y  c #222222",
"u  c #232323",
"i  c gray14",
"p  c #252525",
"a  c gray15",
"s  c #272727",
"d  c #282828",
"f  c gray16",
"g  c #2A2A2A",
"h  c gray17",
"j  c #2C2C2C",
"k  c #2D2D2D",
"l  c gray18",
"z  c #2F2F2F",
"x  c gray19",
"c  c #313131",
"v  c #323232",
"b  c gray20",
"n  c #343434",
"m  c #353535",
"M  c gray21",
"N  c #373737",
"B  c gray22",
"V  c #393939",
"C  c #3A3A3A",
"Z  c gray23",
"A  c #3C3C3C",
"S  c gray24",
"D  c #3E3E3E",
"F  c #3F3F3F",
"G  c gray25",
"H  c #414141",
"J  c gray26",
"K  c #434343",
"L  c #444444",
"P  c gray27",
"I  c #464646",
"U  c gray28",
"Y  c #484848",
"T  c #494949",
"R  c gray29",
"E  c #4B4B4B",
"W  c #4C4C4C",
"Q  c gray30",
"!  c #4E4E4E",
"~  c gray31",
"^  c #505050",
"/  c #515151",
"(  c gray32",
")  c #535353",
"_  c gray33",
"`  c #555555",
"'  c #565656",
"]  c gray34",
"[  c #585858",
"{  c gray35",
"}  c #5A5A5A",
"|  c #5B5B5B",
" . c gray36",
".. c #5D5D5D",
"X. c gray37",
"o. c #5F5F5F",
"O. c #606060",
"+. c gray38",
"@. c #626262",
"#. c gray39",
"$. c #646464",
"%. c #656565",
"&. c gray40",
"*. c #676767",
"=. c #686868",
"-. c DimGray",
";. c #6A6A6A",
":. c gray42",
">. c #6C6C6C",
",. c #6D6D6D",
"<. c gray43",
"1. c #6F6F6F",
"2. c gray44",
"3. c #717171",
"4. c #727272",
"5. c gray45",
"6. c #747474",
"7. c gray46",
"8. c #767676",
"9. c #777777",
"0. c gray47",
"q. c #797979",
"w. c gray48",
"e. c #7B7B7B",
"r. c #7C7C7C",
"t. c gray49",
"y. c #7E7E7E",
"u. c gray50",
"i. c #808080",
"p. c #818181",
"a. c gray51",
"s. c #838383",
"d. c #848484",
"f. c gray52",
"g. c #868686",
"h. c gray53",
"j. c #888888",
"k. c #898989",
"l. c gray54",
"z. c #8B8B8B",
"x. c gray55",
"c. c #8D8D8D",
"v. c #8E8E8E",
"b. c gray56",
"n. c #909090",
"m. c gray57",
"M. c #929292",
"N. c #939393",
"B. c gray58",
"V. c #959595",
"C. c gray59",
"Z. c #979797",
"A. c #989898",
"S. c gray60",
"D. c #9A9A9A",
"F. c #9B9B9B",
"G. c gray61",
"H. c #9D9D9D",
"J. c gray62",
"K. c #9F9F9F",
"L. c #A0A0A0",
"P. c gray63",
"I. c #A2A2A2",
"U. c gray64",
"Y. c #A4A4A4",
"T. c #A5A5A5",
"R. c gray65",
"E. c #A7A7A7",
"W. c gray66",
"Q. c #A9A9A9",
"!. c #AAAAAA",
"~. c gray67",
"^. c #ACACAC",
"/. c gray68",
"(. c #AEAEAE",
"). c #AFAFAF",
"_. c gray69",
"`. c #B1B1B1",
"'. c #B2B2B2",
"]. c gray70",
"[. c #B4B4B4",
"{. c gray71",
"}. c #B6B6B6",
"|. c #B7B7B7",
" X c gray72",
".X c #B9B9B9",
"XX c gray73",
"oX c #BBBBBB",
"OX c #BCBCBC",
"+X c gray74",
"@X c gray",
"#X c gray75",
"$X c #C0C0C0",
"%X c #C1C1C1",
"&X c gray76",
"*X c #C3C3C3",
"=X c gray77",
"-X c #C5C5C5",
";X c #C6C6C6",
":X c gray78",
">X c #C8C8C8",
",X c gray79",
"<X c #CACACA",
"1X c #CBCBCB",
"2X c gray80",
"3X c #CDCDCD",
"4X c #CECECE",
"5X c gray81",
"6X c #D0D0D0",
"7X c gray82",
"8X c #D2D2D2",
"9X c LightGray",
"0X c gray83",
"qX c #D5D5D5",
"wX c gray84",
"eX c #D7D7D7",
"rX c #D8D8D8",
"tX c gray85",
"yX c #DADADA",
"uX c gray86",
"iX c gainsboro",
"pX c #DDDDDD",
"aX c gray87",
"sX c #DFDFDF",
"dX c gray88",
"fX c #E1E1E1",
"gX c #E2E2E2",
"hX c gray89",
"jX c #E4E4E4",
"kX c gray90",
"lX c #E6E6E6",
"zX c #E7E7E7",
"xX c gray91",
"cX c #E9E9E9",
"vX c #EAEAEA",
"bX c gray92",
"nX c #ECECEC",
"mX c gray93",
"MX c #EEEEEE",
"NX c #EFEFEF",
"BX c gray94",
"VX c #F1F1F1",
"CX c gray95",
"ZX c #F3F3F3",
"AX c #F4F4F4",
"SX c gray96",
"DX c #F6F6F6",
"FX c gray97",
"GX c #F8F8F8",
"HX c #F9F9F9",
"JX c gray98",
"KX c #FBFBFB",
"LX c gray99",
"PX c #FDFDFD",
"IX c #FEFEFE",
"UX c white",
/* pixels */
"I J K K K K H F F J F G H G G H G F G H J H F D F H K L J G G G H H H J K K J G H H F D S F H G J G F H G H G F H G K H H K H C ",
"K M N N B M n b n n M B M M m N m m m M N M n n b n m B V m n n m m m m M N M M B N M n b m M M N n n n m M v v M m N N N C B z ",
"K B B N M n n m N m C S F F G G G F D D F G F F F D F H K J K G S F G H J J H H J K H F F F F H J J D S S C m m M m N N M C B z ",
"H M N m b c v m n m Z s s d d d d a p p a d d d d a s f f h g s a d s d g f s d f h f s s s d g f d d d f D v n B b n m b m m z ",
"G m M m v c n b c C F i v v v b v v x x x c c v v c b n m m m n n n b n n v x v n M m b b b M B n b c b d G C z v M b n v n n l ",
"G n M n v m v c n V G a B m v v v x c v v v v v c c v m N M n n b c b b n v x v n M M n b n m m n n b m s F N b v n M m b m n k ",
"F b m n M n z N N v G i M M b n v c c c v c b n b c b n m n b b v c n m m v x x v v v c c n m v n b M m i G v V C b n B m m n l ",
"G n M N n c M b M x H b p N m b b v x x c v m n v c b n M N n v n n b m m b c x c v c c x b N b b N N a x D c B M C n M C A m z ",
"F m N m x c m m V b n K n u M M b v x z x b b m v x c n m M m n n n n m m n c c c v b v v m m n m B p v K M b C N B m b M V b j ",
"J n m n B N v x v A c n H b y M M c z l c b v c c x x b b M M v v v v b c b x x c v b n b b b M V p v J m c A n c c B D M b x k ",
"G m V Z F F F G m c V c n J b i m n c x x v c b c b v b m n b c x c v c c v c c v b M m b v m V a n K m x V c N H G F J D V b j ",
"J m A d p s i c P N c Z x n H b i N N M M M N M N V V C Z C V V N V Z C V B B N B B V V B B C p c P m v V c n P n a s a f F n j ",
"J m D f n N m s v L N c V c m I n u s p p a d s a d d d s d f f d f d d a p a s d d s s f a y v K n c C c N J n s M M b d G b j ",
"H n F f b n m N a z L M c C c m G Z S A Z A A Z Z Z Z A A A S A A S A C Z S A A S S S S S D A G m c Z c n K m d m n c c f H n k ",
"G b F d v b v v n p c L M x N x n C N N N N N M M m n M B Z C Z A C B N B N N B B B V N B B V b c C b m H c s m m n b c d H n l ",
"H n F d v n v v m m p z K n z V c v n v b b v v b v v N k l l k l k j z m n b v b n n v b B b c C x v L v i b m b m b b g H n k ",
"G n D g x m b b b b n d c D n c V x c v c c n M C V N l b M M N M M M n k m M M m m n n m c x Z x v F x p b b v c v v b g G v h ",
"G n D g c m b b b v v M i C C v x B z c m m c m c m x c b c v b b v x b b z b z n z M N b c Z z b N B y M M v v c v c v f G c h ",
"H m F h b n v b v b c N a C N M c z V x b z N C n n B v b m m n n n v c v B b v N m x n b C c x m M C a M c v x b v c v g H b k ",
"K M F h b n v b b z c M a C M n m c v C j M M b B x M v n b v c v v v n v M k m x b m j Z b c n v M Z a M c b v v c v c g H n k ",
"K N G g b n b c v x c M i C m v z m b j M m x m B m b V b x m n m m x v N v v b c v n N j b M z v M Z a m v b v b v v v g H b k ",
"K N H h v n b b b c z n i B m x c m l m n v b n N M x n c m m M M M N b m x M N b c v n n z M c v n Z a m v v v b n n b h J b k ",
"K M H j c b b b v x x m i B n x n l v n c b b N b x B b n n b b n m B N m M c v N b v c n n x m c m Z a m v v v n n n n j L m k ",
"J m H h x n b c c z z M i V m x m b m x x b N b x M m v b v c c v n m m n v V b M N m c b B n n c m A a N v b b M n n n g L M l ",
"H m G g c b b v c x x m i V m x M z b b n n v c N m M m n b v n b m M M M n M C b m V N M n k M c M A a N v M n b b v b f J m k ",
"H n D d c c c n c x z n p B m z M M n k n b x V n m M n v c v v v n m M B N M N Z v n m k M n m v B S a B b m n b b v b d G n j ",
"G n D d c c c c z x x M p B M c m c N n v l V m n M M n v c c x b m m M N M N M b V c n n N x N M N S a N v n n n b v v g K n j ",
"G n D f c v v c c c c M a C M N l n n c B n n v n M N m v x x v n M M M m b b b v N m B v c M x C B A s N c b b v n b b h K n k ",
"G n D g c b v v v c v M p C V k b n b m n c M b n b m n v x c v b n M m b v c c b V m n m c m M z V S s B v b v v n n n g G b j ",
"G n D f v n v b v v v N s Z Z l B v v v x M M b n v v v c c v b b n n n n b v v v m M v n M v N k C A s B b b v b b n b f G v h ",
"G n D d v n v b b c c V s C C k B v n c n M m b n b c c c c v b n n b m m n v c c n M M n M v B z Z A s N b v v b b b v f G c g ",
"H n G d v b v b v v v B s Z V k M x n x n m n v n b v c c c v v b b v n n v c c c n N m b m v B z A A s N b c b b n b v f G c f ",
"H m G f c v c v b v v V d Z V l n x b c m M v c v v v x c b b b b v v v v c x z c n M n v m v N z A S s B b n n n n b n h G c g ",
"J M G g c n v c v c v V s Z V l n x b x m M b x v v c x c b n n b v v v c c x z c n M n b N v N z A A s N c b b b m b n h G c h ",
"K M H h v b b b v l c N s Z V k m z b c v m b z x x x c c v b v n b v v v c x c c m M x b n v B z V Z a M x c v m n b n g G c g ",
"K M G h v b v b c c v M d C N k b v c b b c b z c x x c c v v v n b v v b v c c x b b v m v b b k B C a M c v b b b v v f G c g ",
"H n G h b b v b v b v N s S M n j b v x B n c z c x x x x c c c b b v b n b c x x m n M v n b l N m C a m v b n n m b v d F c h ",
"J m G k n n b b n b b B d A M b m x N M c z m v x x x x x x c c v v v n M n c c v C x c m M c m m m C a m v v m b N n b d G x h ",
"J M G k b b v b b n n B s Z n x M m m l b m x M x l z x x c c c c v b n n b v v M x b v z n m n z m C a m c v n n M n b f F c h ",
"H m D f v b v b v v v M a V m c M x b m m m x x M x x z z c c c v v v v v b m B x b M v n b z M c b C a N x b v b M b c f D c h ",
"G n S d c b b b n b x m p V m c n b B c v b n v z M x z x c c c v v v v v n C v v N c z c B b m c n C a M x v c b n v v f F c h ",
"F b S s x b v v v c c M p B n c n z m n b v v n c z M b b n n b n n n b m V v b m c c z n m z m c m Z d N x c x c b c c f G v h ",
"F b S s x v c v c x c M p B m c c n z m n v x c m b l n v B B N M N n n m z m N v c c n m c N v c m Z d N c c c c b x x d F c h ",
"D b A d x v c v v c c m p C n c x m n h b n x z n b c N n v M m M M c b B x n m x x v m h b M l c n C s M c v c c x x c f G c g ",
"F b A d c v c v v x c M a Z n c b c v A k M b x n k n c n n c v c c v v v M l N c v n j C z c b c n C s M c v c x x x c f G c g ",
"G b S f x b v b v c c B a C m n v c Z v n c b M v b B v v n m m n n v c b B n v m v z n c B x c m n V a M x v x x c v c d G x g ",
"G n D d z b b b v c x N u B V v x C v c N M z v k m x m m v c c x x x n v z n z b x m N b c V c x M C u M b v z x v v c d G v h ",
"H n S d z b n n c b b i v G b x C x c n x c n M B N m z n M M M m M N m k n b m v n x c v v c Z v n F v y M n x x v v v d G b j ",
"G n D f z v v b b b a x J M c C v b m v c c c c b v n N z k l l k k l j M v x c c v c v b B v v C x b K n s M n x b v v d G v h ",
"S c S f x v v v M p v J m z C v b N n n v n n m M m M N V Z Z Z C Z Z V n n m m m m n n n m V n c V x n K m i b b c c n f H v h ",
"A c A d c v b m p z K M x C v n F N C C V V C C Z Z Z Z A A C Z Z Z A Z C C Z A A C V V C C C H m v V z n L n p v b c c f H c h ",
"A v S d v m b a c H m x C c m J z y a a a a a d s s s s s s a a s s s a a s s d s a a p a s p c P M x B c N L v p n M v s F c g ",
"F M Z d p i u z J M z N x n H c i m M m M M M m m M M M M M M N m M M m M N N M N M M m M B m p v K m z V c m H v y d s s S b j ",
"H C C Z F S A S n x V c m H c y b b x x v b v x x c c v b b c v v n m b v c c c c v b x c v n b a c J n x V x n H F D F Z C n j ",
"H n n n V M x z x B c m K x i c v v v v v c c b v v v v b b v v c v n v x v b b v n m b n b m M m p x J n c C c l c N V N n v l ",
"F b M b l v m b m x M J z p c c v x x c b b c c c c c v b v v c x v b b c n n b c v v v n b b n n b p z H n z M c m x z v M c j ",
"G N N M v z m v b l D x a b v x c v c v b n v c c c c c x c v v b b b n n b n b b b n b v n b v v c c p l S z n x N l v M N n l ",
"H M m v b z k B n z D i n b v x x v v c v b v c v v c c c v b v b n b m b m m m m v c n n n b x z c b b y S z M n j z b x b m z ",
"H M n x x c x x z b S p m b v v c v b b b b v v c n c c n v b b m m m M n m M m m b b b b b v x x c c n u Z v l k z v x x c v k ",
"J m n x z z v c x V A u z z l x z l x x z l z x x v k l x l l z x x x x z v c c v c z c c z l l k l z z u A n h x v c x x c c h ",
"G m m c x z z n x v V a s s d g g f f f g f g g g h g g f d g j h g h f d d f d h h g h g f f f f f h f a N x z b c c x x v c g ",
"H B M n b v x m n x B C D D D D D S D D D D F F F G H H G G H J G G J H F F F F H G G J H G H F F G G F Z N c n m b n b b n b k ",
"K N m m m v x x z x b c x x x z x x z x x x x c c v v c c c v n M M b c x x x c b v v b v v v c c b b c b n x c b x v n n m b k ",
"Z m z z c k j k j z j h j j h k k k j l k k k k l l l k k k k z z z l k k j k k l l l l j k k h j l l j j k z z z l z z l z k f "
};
