/* XPM */
static char *_83e7dd7ba8f44dda3f5af4588e597f9YOkMmKpEB7t6dHfH[] = {
/* columns rows colors chars-per-pixel */
"64 64 236 2 ",
"   c #060405",
".  c #0A0606",
"X  c #0C0907",
"o  c #0A0708",
"O  c #0E0B0B",
"+  c #070508",
"@  c #140504",
"#  c #140905",
"$  c #110E0E",
"%  c #1B0D0A",
"&  c #180805",
"*  c #14100F",
"=  c #1C120D",
"-  c #0F0D10",
";  c #120F10",
":  c #141111",
">  c #1A1412",
",  c #210E0A",
"<  c #21160E",
"1  c #241A15",
"2  c #291B15",
"3  c #291D1B",
"4  c #241816",
"5  c #361A16",
"6  c #2C211C",
"7  c #2A2017",
"8  c #34231D",
"9  c #39231D",
"0  c #34281F",
"q  c #2D2520",
"w  c #372923",
"e  c #3D322C",
"r  c #37302A",
"t  c #3C3230",
"y  c #472B27",
"u  c #45342C",
"i  c #4B392C",
"p  c #463428",
"a  c #59352D",
"s  c #453932",
"d  c #4B3C34",
"f  c #473731",
"g  c #513D34",
"h  c #593935",
"j  c #582E28",
"k  c #663B34",
"l  c #421C13",
"z  c #4D413B",
"x  c #4D4036",
"c  c #554336",
"v  c #55453B",
"b  c #5A463A",
"n  c #5C4A3E",
"m  c #57473A",
"M  c #614C3F",
"N  c #6B433C",
"B  c #76433B",
"V  c #564B42",
"C  c #5C4C42",
"Z  c #574943",
"A  c #5D5149",
"S  c #624E42",
"D  c #684A45",
"F  c #645244",
"G  c #685545",
"H  c #645449",
"J  c #6B554A",
"K  c #6C5A4C",
"L  c #6B5946",
"P  c #715D4E",
"I  c #775649",
"U  c #6C5D51",
"Y  c #665952",
"T  c #725E50",
"R  c #7F5851",
"E  c #73614F",
"W  c #79644E",
"Q  c #6E6154",
"!  c #746253",
"~  c #7B6454",
"^  c #7C6956",
"/  c #7A675A",
"(  c #7D6B5B",
")  c #74655A",
"_  c #7B6E65",
"`  c #875B54",
"'  c #985D55",
"]  c #845549",
"[  c #A55D53",
"{  c #846C55",
"}  c #826D5B",
"|  c #8A6D59",
" . c #9B625A",
".. c #97635A",
"X. c #85715D",
"o. c #8B735D",
"O. c #8F7155",
"+. c #93755C",
"@. c #94785D",
"#. c #A66459",
"$. c #B5685B",
"%. c #856C62",
"&. c #9B6861",
"*. c #857262",
"=. c #8B7563",
"-. c #8E7965",
";. c #8C7A6A",
":. c #867569",
">. c #927761",
",. c #947B64",
"<. c #9B7D64",
"1. c #927D6A",
"2. c #9A7F6A",
"3. c #977167",
"4. c #8E7C70",
"5. c #987D74",
"6. c #A86D64",
"7. c #B86D62",
"8. c #A87565",
"9. c #B67469",
"0. c #B17A72",
"q. c #C56C5C",
"w. c #C27265",
"e. c #CB7364",
"r. c #C6776A",
"t. c #D47564",
"y. c #DD7967",
"u. c #D37B6B",
"i. c #DD7C6B",
"p. c #D77766",
"a. c #C2776D",
"s. c #E47966",
"d. c #E37B6A",
"f. c #ED7D69",
"g. c #E57966",
"h. c #F27E6C",
"j. c #9D8066",
"k. c #9C836C",
"l. c #96806A",
"z. c #9C8471",
"x. c #9F8973",
"c. c #988578",
"v. c #A2856B",
"b. c #AA866D",
"n. c #A5886D",
"m. c #AC896E",
"M. c #A18772",
"N. c #A48A74",
"B. c #AB8D72",
"V. c #A48C7B",
"C. c #A98F7A",
"Z. c #AA8473",
"A. c #B28E72",
"S. c #BB8B79",
"D. c #AD927B",
"F. c #AF9176",
"G. c #B49275",
"H. c #BB9475",
"J. c #B3957B",
"K. c #BA957A",
"L. c #BD9A7C",
"P. c #B7987C",
"I. c #B38A6E",
"U. c #DD806F",
"Y. c #C58779",
"T. c #D78776",
"R. c #C49B7C",
"E. c #CA9E7B",
"W. c #C39778",
"Q. c #D8967D",
"!. c #E4826E",
"~. c #ED816C",
"^. c #F3826E",
"/. c #E68573",
"(. c #EB8471",
"). c #EB8B78",
"_. c #F58471",
"`. c #F78A75",
"'. c #F3927B",
"]. c #CFA17E",
"[. c #C6A07E",
"{. c #D2A27E",
"}. c #AA9585",
"|. c #B29682",
" X c #B49A84",
".X c #BB9C83",
"XX c #BA9987",
"oX c #B58C85",
"OX c #BDA08B",
"+X c #BCA190",
"@X c #C39D83",
"#X c #C99887",
"$X c #CD9790",
"%X c #E79A85",
"&X c #F99783",
"*X c #C5A183",
"=X c #CBA383",
"-X c #C4A38C",
";X c #CAA48A",
":X c #CEA98B",
">X c #D3A483",
",X c #DCAA86",
"<X c #D5AC8B",
"1X c #DBAD8B",
"2X c #D3A888",
"3X c #DCB18E",
"4X c #C5A894",
"5X c #D7AB94",
"6X c #DCB393",
"7X c #D9B59B",
"8X c #E2AE8A",
"9X c #E4B28D",
"0X c #E8B78F",
"qX c #E2B492",
"wX c #E7B995",
"eX c #EBBC95",
"rX c #E7B99B",
"tX c #F1A896",
"yX c #EABDA3",
"uX c #EDC19D",
"iX c #F4C39C",
"pX c #EDC3A3",
"aX c #FBCBA5",
"sX c #F6CBAA",
"dX c #F5C8A5",
"fX c #FED2AC",
"gX c #F7D0AF",
"hX c #FED6B4",
"jX c #FEDBB7",
"kX c #FFDBBA",
"lX c #F9D1B5",
"zX c #ECC6B4",
"xX c #FFE1BB",
"cX c #FFDAC4",
"vX c #FFE5C2",
"bX c #FFEBC8",
/* pixels */
"$ - ; - - - $ - - : : - O - $ * $ $ ; ; ; $ @ $ @ $ @ @ & $ & @ ; ; ; - + - o o X X X O O O X $ $ O + +     . o o o         .   ",
"- $ - : : ; : O - O $ $ O @ @ & @ @ & & & & , 4 5 9 y y 9 q 3 3 & @ ; o + O + o   * O X O X X X X     X .   . X o . .     . o . ",
": O ; : ; : : ; : - - $ % y k k k k k a j k ` ..&.&.&.&.' &.` &.h @ - ; - - O O O - * * * X X $ X     X X .   X o o         o o ",
"- - : : : : - O - - * $ 3 %.6.#.6.[ ' &.6.6.7.a.0.7.7.7.$.6.6.` ` D @ ; ; - ; ; - - O - * X X X + + + X . X O X . o         O O ",
": : : : ; : ; ; ; ; $ ; @ h ` D ] ' 6.7.$.w.e.u./.r.e.e.w.7.7.0.0.5.9 $ ; ; ; ; - - - * - O $ X .   . . . X # O o . +       O X ",
": : ; : ; : : ; % ; ; ; ; % l k ..#.[ 7.e.t.p.p.q.t.t.t.e.e.7.a.Y.oXD & ; ; - ; - - - - - $ O $ X X . X O X O O o . +     X O O ",
"; ; : : : : : : : : : : ; & j [ [ #.7.e.t.y.y.d.u.u.i.y.y.t.u.7.Y.$X;., * O - ; $ - $ - - $ X O X X X X O # O X O .       o O $ ",
": : : ; : ; ; : : : : : $ 8 ..' [ r.u.t.y.g.g.h.i.d.y.g.g.y.p.r.9.$XoX9 # : - - * - - $ - $ $ O X $ O X X X X O X X o   + o . . ",
": : : : : : : : : : ; % % D ..' #.e.t.s.s.s.h.h.s.f.f.g.d.(./.u.r.Y.$Xh X * $ $ $ - - * - $ - $ X $ $ X X X X $ $ O   X   o   . ",
": : - : : : : : ; ; ; % 9 ` ' [ $.q.p.g.f.h.h.^.^.~.h.f.g.(.&XU.u.a.$X` # * $ $ * O - - $ - $ $ X X X X $ $ X $ ; O   o X o . . ",
": : : : : : : : : : : ; y  .' [ $.e.y.s.^.^.^.'.'.'.^.h.f.g.d.i.p.r.6.D % = * $ $ $ - * - $ $ * - X $ $ $ - - $ O o o o . . . . ",
": : - : : - : : : : : : h ' [ [ 7.u.d.s.h.^.^.'.tX&Xh._.h.f.d.p.t.r.0.N % = = * $ * $ - - * - - - o $ - $ $ - - O o O o . . . . ",
": : : : : : : : : : : % k ' ' $.$.q.s.f.^.^.^.^.`._._.^.f.h./.u.e.a.0.` & : * * * * * O - - - $ - - - - O o O ; O o o o @ X o o ",
": : : : : : : : : : : % N &.[ [ q.t.s.^.^._._.^._._._._._._./.T.e.w.6.N & $ * * * * * * - * * - * - - * O X - - O + X o O O o o ",
": : : : : : : : : : : % h  .[ $.7.U.U.~.!.~.!./.U.)._._._.h.d.i.t.w.6.j & * * > $ * * - - - * $ O $ $ $ X X - - O o o o o X o   ",
": : : : : : : : : : ; % y ' [ [ $.Y.T.Q.8X'.Q.%X%X%X/.)./.(./.p.e.w.9.5 & * * : $ * * * * - - - - $ $ X O - - - - o o - O o .   ",
": - : : : : : : : : : % y R ' &.XX7XzXlXkXhXkXkXcXzX:XS.0.#X%Xu.e.w.7.j * : : : : : : : : : : - - - O O O - - - - X X * - X X X ",
": : ; : : : : : : : : $ w I %.~ T } x.5XlXgXgX7Xk.^ %.}.0.S.#XY.9.7.9.k * : : * * - : : : : : : - $ O O O - * - O X X * * X X X ",
"; ; : : ; ; : ; * - : % 4 T ) D H n V } -XsXsX:X2.} *.c.V.J.$XW.8.8.6.j # > * * * * : : - : : : - * - O O * - * * X X - * O O X ",
": : : ; ; ; : : - * : $ > U %.) Q ) _ 1.>.yXjX<XZ. X*.} >.C.*XL.m.B +.c # * * * * * : : : : : : * - - * O - - X X X - - O X O O ",
": : : : : : : : * * : : # Z :.K %.c.}.+X+.7XjX3XA.K.XX-X;X<X@XK.j.{ R a # * * * * * : : : : : : - - - - * - * X X X O - X O O X ",
"; : : ; : : ; : : $ : : O e :.-.=.z.|.XX8.5XfXuX1X=X=X<XrXrX,XL.j.N.-Xc X * * * : * : : : : : : - * * - * - - * X X - - - X O O ",
"- ; : : : : : : : : : : $ 3 %.V.D.K.@XXXb.wXfXaXaXfXdXdXaXaXwX@Xj.x.zXE X * : * * * : : : * : : * * * * * * - - O * - - * X X O ",
"- - : : : : : : ; : : : $ 6 _ D.4X6XqXR.I.pXaXiXiXfXfXfXfXfXwXR.k.k.4Xi * > : : * * : : : : : : * * * - - * * - X X - - - X * X ",
"- ; : : ; ; ; ; : : % ; * 7 / V.;X6X6XK.H.dXfXdXeXaXaXaXfXfX6XK.k.=.;.9 * > : : * > * > : * : : * * : * * * - O X O - * X X X * ",
"; ; ; ; ; $ ; ; ; : : ; * > U 1.J.:X*XS.:XjXkXdX0XyXaXeXqX3X$XK.k.=.x.u # > : > > * > : * * : > : * : * * * - * X * - * O X X - ",
"; - - - - - : : : : : : * % Z *.N..XK.8.<.7XyX5X>XyXdXyX3XL.L.XX1.X.c.v * = : > * > > * > > > : : : * * * * - - - * * - - X - - ",
"; - - - ; $ : : : ; : % * $ t ) -.D. XG.+.8.$X7XyXyXyX5X.XL..X|.=.*.l.U 1 * = : > * * * : : : * : : * * * * * - - O X - - * - - ",
"; - - - - - ; : ; : ; : : $ 3 Y ( l.D.OX-X-XrXrX5X5X#XZ.|.J.|.M.} :.;.^ m 7 * * < * * * : > > * : : * : * * - O * * - * * O * - ",
"- ; - - ; - : : : ; : ; : $ : d Q ( z.D.XXK.oXY.Y.#XJ.-X|.N.N.=.} ;.=.! ! Q x 2 * * > > : * * > : * * > * * * X O - - - O X * - ",
"- - ; % - ; ; ; : ; : : : : $ q A Y ( ~ | Z.$X5XtX#X$XXXM.2.=.} 1.V.} ^ X.;.-.! s * * > > : > : : : * : * * - - - * O - - O - - ",
"- ; - - - - ; ; ; ; ; : : : : = r V Y *.>.Z.#X#XoXoX#XD.z.;.} =. Xx.o.X.2.k.k.k.l.Q r > * > * : : > * : * * - - O - * * - * - - ",
"- - $ - - $ $ - $ $ : ; : ; : $ > r V Q *.*.~ I Z.4X|.z.1.*.} C.+Xz.l.1.k.N.v.x.x.j.=.K w % # * * * = > * $ $ * - - : ; - - - - ",
"- - $ * - $ - $ $ $ : ; : : : : * > t A ( c.*.l.4X4X|.l.X.! ;. XC.C.N.2.k.v.v.v.n.n.k.l.;.n = * * * : : * O O O - * * ; - - - $ ",
"- * - - - $ - * ; O ; : ; : : : * > > V ) ;.:.c.+X}.}.:.P } l.k.k.OXD.,.2.v.N.I.P.L.P.B.N.x.J < $ * * > * $ $ $ - * * * - - $ - ",
"- * - - $ - $ $ - ; ; : ; : : : * = = s Y ) H K _ 4.*.T ^ 1.k.k.x.+X Xo.=.v.B.L.[.].[.[.L.D.V.F % = * * * $ $ - O * * - - $ O - ",
"* * * * $ - * - - : $ : : : : : * > 7 s v m d i Y T U ~ *.o.|.N.x.4X.Xo.o.n.K.@X].[.[.[.L.P.C.l.p @ * * * $ O O * ; ; * * - o $ ",
"* * * - - $ - $ $ - $ : : * : : - > s C V c d g v S T ( ^ C.x.l.N.4X X| o.B.L.R.[.[.[.L.F.n.N.l.( i = * * $ O O ; ; ; * * - O O ",
"; * * * - - - - - - O : : - * * * r V F S C b b n F T T V.N.l.N.D.4XD.{ { <.n.A.H.L.F.m.n.j.@.o.l.;.Q w # $ # - ; ; * - - $ O O ",
"; ; * ; * - - * - : - - - - : * > z C C b S S b n M D c.x.X.z.x.C. Xk.{ | 2.n.n.m.F.n.j.n.j.j.o.^ X.l.:.e @ # * : : * * - * X X ",
": : ; : : : - - : O - - : - : $ 0 C v c g c J M c n =.=.~ 2.l.k.C.j.j.l.l.l.@.o.@.+.+.j.m.F.m.n.@.{ ( ;.:.0 # * : : : * O O O O ",
": : : : : ; O O - O O - - : > # r v g c b c n J Q ( ! G ^ *.l.N.l.@.n.B.@.o.@.j.n.n.j.n.G.G.F.m.N.l.X.X.;.) 1 $ * : : * - O o : ",
"; : ; ; * ; O O : - - - - - * * e d m n M M S S ^ F n ~ } 1.z.X.{ k.P.j.O.8.n.G.W.H.H.H.H.H.m.m.F.N.-.X.;.c.v # * : * * - o O O ",
": : : - - ; ; - O - ; - - - * * e V C S M D M M m F E *.1.1.} ~ j.F.F.O.@.v.A.[.{.].].E.R.H.m.b.G.B.k.o.=.5._ 1 $ : - - : - O ; ",
": : > - - - * - ; O - O O ; $ : d C S M F P J n n L ( 1.l.o.W o.k.P.v.O.v.m.[.{.{.8X{.{.{.[.I.m.P.F.k.o.-.l.;.s # : * - O O o O ",
": - : : * - * * ; o o o O O $ 1 Z J F F P R F M F ! ;.l.l.{ ^ l.B.L.v.@.n.R.,X,X8X0X0X{.{.W.m.m.K.F.k.o.=.z.l.A $ * - - - o o O ",
": : : * : : - - ; - ; ; $ O $ w A J G K ! P M F ^ *.l.l.l.^ O.n.P.[.v.@.b.[.9X0XiXiXiXiX1X[.I.H.P.G.n.@.>.k.l.! = # O - -   . X ",
": : : : : ; * - O . $ O O X $ t H J K K ! L D I ( *.:.l.l.X.l.F.L.*XB.O.m.2XwXuXiXaXfXaX3X[.I.H.K.G.k.,.l.x.l.X.0 X * O * o . O ",
": : ; ; : : ; $ @ O X # O X $ s K U K ! P M J } =.-.-.-.l.^ l.F.[.2Xn.O.G.<XuXiXgXxXvXgX9XW.H.L.K.A.v.@.k.C.x.l.x X * $ $ O   O ",
": : ; ; : ; ; ; X O X O O X : z K Q ! ! L F E ( *.-.o.=.l.O.l.P.[.{.n.{ G.<XuXaXxXbXbXgX9X[.H.W.L.G.v.,.C.D.N.l.F # X - X O   X ",
": : : ; ; ; ; O O . # O - . 4 A K ! ! E F L ~ ( X.-.=.X.X.X.j.P.:X:Xn.l.G.3XiXaXxXbXbXsX3X[.W.W.L.G.j.j.P.P.N.o.L < X X X O X O ",
"; : : : : ; $ O O O O O O . 3 A Q P ! P n K ( X.X.X.X.( E ^ o.B.:X:Xj.j.L.6XiXfXxXbXxXuX1X].W.R.L.G.j.B.4XOXx.l.Q < X * X + X O ",
": : : : : ; - O o O O O . . 3 A K K Q K S T ( } X.^ ^ ^ M L O.k.[.:Xj.l.P.6XiXsXxXxXjXwX,X[.[.W.H.F.k.D.OXP.l.*.K < X O X X X X ",
": : ; ; ; ; O ; O O O X o . 4 Z H J J J C T } *.*.^ ! E M n M l.D.OXj.@.[.6XuXiXfXxXsX3X{.W.E.W.G.P.n.J.OXx.l.( F = # X o +   X ",
"% O ; ; $ $ @ O X O O o . . : d C J J G n K ( *.-.( ^ L n x c ^ n.F.@.j.[.3XwXiXfXfXuX<X{.W.R.W.L.H.n.D.D.l.^ ) v # * X O + X o ",
"_ 3 # ; ; $ O O $ X @ X $ . X t n S F F b G / *.=.X.^ L m p 0 M l.x.@.j.L.<XqXiXiXiX3X>X].E.[.[.[.H.k.l.l.W L K s # X O o X + O ",
"}.C & $ : $ O O X $ # O X X   3 d C C C b b U } *.=.} ~ M i p i E -.o.<..X3X3X0XeX9X>X>X].>X>X>X[.P.j.W Q L L L e # $ # o + o o ",
"V.;.d X # $ $ $ X X X   . O   $ e Z C F b g S T / } *.} E b p p L ,.j.m.R.2X3X3XeXwX3X1X1X>X>X:X[.H.l.L F H L U e # $ O o + . o ",
"-.=.*.Y 3 # $ $ # O O . . .   . 6 d b C c i b H P ~ / ! L b i D ,.F.K.[.=X,X1X9XpXgXkXlXrX<X{.].[.H.o.K K E E L f # % $ o o o . ",
"l.l.c.}.( = $ $ O o O X X . X . @ q s g g u c C J K P L n g S =.J.;X<X<X3X3X3X9XdXvXvXkXdX<X].E.L.H.@.E E Q Q U z * $ O   o   O ",
"-X XV.|.c.6 $ $ $ . X X X   . X . @ q f u u i g V H S C g b X.v.K.<X9XqX9X8X9X8X9XpXdXpXwX>XW.W.L.G.@.E ^ ) ) L v 4 @ $ o o o O ",
"-XOXD. Xz.2 # * O o X X X @ . . . . % q f g u u d g g f u T z.N.R.6XqX0X9X8X8X{.>X{.>X1X3X#XW.H.H.B.o.^ ( ) ) F Z 3 $ . + o . O ",
".X X|.}.5.2 . ; $   X $ O X . . . .   > d C g w 9 w w 8 u %.M.D..X3X3X3X1X,XQ.{.{.E.E.2X<X].W.H.G.n.X.( ( ( ! C V w $ . o o + O ",
"J.C.V.x.4.9 . - $ $ X X X . . .     . $ y C b w 8 8 8 3 d %.k.F.K.;X>X{.{.{.E.].E.W.E.1X1XR.G.B.m.k.X.( ( ) K C V w @ O O o o O "
};
