/* XPM */
static char *_37de503edcd4512d9c67702a1963c7f2qqLRvdT45SKKV13[] = {
/* columns rows colors chars-per-pixel */
"64 64 253 2 ",
"   c #173916",
".  c #143310",
"X  c #1C3C23",
"o  c #213F19",
"O  c #1A4619",
"+  c #244A18",
"@  c #20410A",
"#  c #1D4724",
"$  c #2A4B27",
"%  c #2C5728",
"&  c #365928",
"*  c #2E5A33",
"=  c #365A37",
"-  c #2B4E33",
";  c #396438",
":  c #3D612C",
">  c #4A6C3C",
",  c #456938",
"<  c #4D753C",
"1  c #4A7236",
"2  c #517A3D",
"3  c #3E6848",
"4  c #345F43",
"5  c #4B6C42",
"6  c #466D48",
"7  c #4D7244",
"8  c #4B764A",
"9  c #497548",
"0  c #517445",
"q  c #537B43",
"w  c #52754B",
"e  c #557C4C",
"r  c #597E4E",
"t  c #4B7454",
"y  c #4C7A58",
"u  c #557C51",
"i  c #597D53",
"p  c #53795A",
"a  c #496D53",
"s  c #4D7D60",
"d  c #527F60",
"f  c #57814A",
"g  c #5A834C",
"h  c #598144",
"j  c #5C8354",
"k  c #5C855A",
"l  c #5E8A5C",
"z  c #578556",
"x  c #628A55",
"c  c #63855B",
"v  c #648B5C",
"b  c #668859",
"n  c #69915D",
"m  c #68935B",
"M  c #749C59",
"N  c #64884C",
"B  c #79A35E",
"V  c #598766",
"C  c #598A6C",
"Z  c #638D62",
"A  c #6A8D63",
"S  c #638D6C",
"D  c #608365",
"F  c #669263",
"G  c #6B9364",
"H  c #64936C",
"J  c #6C956A",
"K  c #6D9A6B",
"L  c #6D9965",
"P  c #71966A",
"I  c #739B6D",
"U  c #759B65",
"Y  c #678C71",
"T  c #649474",
"R  c #6B9473",
"E  c #6D9A73",
"W  c #6D9B7B",
"Q  c #6A9878",
"!  c #749D72",
"~  c #799E73",
"^  c #749D7A",
"/  c #769A7A",
"(  c #718A6A",
")  c #7DA662",
"_  c #7AA46C",
"`  c #6FA175",
"'  c #75A273",
"]  c #7BA475",
"[  c #7CA976",
"{  c #75A17B",
"}  c #7BA47B",
"|  c #7DAA7B",
" . c #76A978",
".. c #6EA06F",
"X. c #84AB69",
"o. c #8AB36E",
"O. c #83B06D",
"+. c #81A67B",
"@. c #82AB7D",
"#. c #8AAE7C",
"$. c #83A974",
"%. c #8CB473",
"&. c #8EB778",
"*. c #93BC7A",
"=. c #92B876",
"-. c #9AC27C",
";. c #779E83",
":. c #6D9E80",
">. c #6EA280",
",. c #74A382",
"<. c #7AA583",
"1. c #7DAA83",
"2. c #7BAC8B",
"3. c #77A888",
"4. c #7FB18E",
"5. c #7EB092",
"6. c #84AD82",
"7. c #84AD8B",
"8. c #86A985",
"9. c #84B183",
"0. c #8BB384",
"q. c #8BB489",
"w. c #8DBA8B",
"e. c #88B689",
"r. c #92B584",
"t. c #92B986",
"y. c #91B789",
"u. c #94BC8C",
"i. c #9BBC8A",
"p. c #8AB394",
"a. c #8DBB93",
"s. c #8BBD9B",
"d. c #85B796",
"f. c #94BD93",
"g. c #95BC97",
"h. c #88AC90",
"j. c #97BEA3",
"k. c #8DBEA0",
"l. c #99C489",
"z. c #95C293",
"x. c #9CC394",
"c. c #94C29C",
"v. c #9CC59B",
"b. c #9DCB9B",
"n. c #9DC994",
"m. c #8EC49E",
"M. c #A2C78B",
"N. c #A2C593",
"B. c #A3CB96",
"V. c #AACC95",
"C. c #A0C69A",
"Z. c #A3CC9B",
"A. c #AACD9B",
"S. c #AAC598",
"D. c #B1CC98",
"F. c #A5D19E",
"G. c #AAD29D",
"H. c #A8D395",
"J. c #BBDC9D",
"K. c #B5D59A",
"L. c #BDE39F",
"P. c #9BC4A3",
"I. c #94C9A4",
"U. c #98C9A7",
"Y. c #9CD1AB",
"T. c #9ED2B2",
"R. c #A3CDA3",
"E. c #A6CBA8",
"W. c #B2CDA5",
"Q. c #A6D3A4",
"!. c #ACD4A3",
"~. c #ABD4AB",
"^. c #ADD9AA",
"/. c #A8D5AA",
"(. c #B2D5A4",
"). c #B2DAA5",
"_. c #BBDCA3",
"`. c #B4DCAB",
"'. c #BBDDAB",
"]. c #BAD6A9",
"[. c #A3D5B3",
"{. c #A9D9B7",
"}. c #B3DDB2",
"|. c #B7D9B6",
" X c #A7CEB1",
".X c #BBE2AD",
"XX c #B5E1AB",
"oX c #BCE4B2",
"OX c #B9E4B6",
"+X c #AAE1BB",
"@X c #C2DF9D",
"#X c #C2DBB3",
"$X c #C4E3A4",
"%X c #CAE6A4",
"&X c #C3E3AB",
"*X c #CBEBAB",
"=X c #C8E8A9",
"-X c #D2EEAC",
";X c #D3F1AE",
":X c #C3E4B3",
">X c #C5EAB4",
",X c #CCECB4",
"<X c #C4E6BA",
"1X c #C5EBBB",
"2X c #CBECBC",
"3X c #C9E6B4",
"4X c #D0EEBA",
"5X c #CCF1BD",
"6X c #CFF1B5",
"7X c #D4F4B4",
"8X c #D9F5B3",
"9X c #D4F4BC",
"0X c #D8F6BC",
"qX c #D8F8B9",
"wX c #CFF2AE",
"eX c #C4E19E",
"rX c #B9DDC2",
"tX c #B2E4C3",
"yX c #B5E9C9",
"uX c #BBE9C8",
"iX c #B4EBC8",
"pX c #CAEEC3",
"aX c #C5EACA",
"sX c #CDF3C4",
"dX c #CDF2CA",
"fX c #C5F1C5",
"gX c #D3F4C4",
"hX c #D9F6C6",
"jX c #D6F9C5",
"kX c #D3F5CB",
"lX c #D9F6CC",
"zX c #D6F9CC",
"xX c #D9F9CD",
"cX c #DBFBC2",
"vX c #CCEED5",
"bX c #C9F7D6",
"nX c #D5F6D4",
"mX c #D9F6D4",
"MX c #D5F9D4",
"NX c #D9F9D3",
"BX c #D7F7DF",
"VX c #D6F6DE",
"CX c #D5F6DD",
"ZX c #D5F6DD",
"AX c #D9F7DD",
"SX c #D6F9DC",
"DX c #DAFADC",
"FX c #D2EEC7",
"GX c #D7F7E0",
"HX c #DAFBE2",
"JX c #D9FBE3",
"KX c #E1FFE6",
"LX c #E0F7DB",
/* pixels */
"%X8X-X8XgXjXNXSXbXSXVXVXVXVXGXAXAXSXGXCXCXCXGXGXGXGXGXCXCXZXZXMXnXzXmXxXxXxXxX4X9X0X8XwXwXJ.>XkXMXaXpXkXpX1XsXoXoX^.l.l.n.%.B [ ",
"-X8X8X8XgXzXMXMXMXDXVXVXVXGXGXGXSXGXVXCXCXCXVXGXAXGXCXCXbXSXSXMXMXkXkXlXgXlXlXD.,X9X7X*XL.J.*X>XkXkXpXsX1X5XfXOXoXF.b.F.l.&.-.&.",
";X8X8X0XhXMXnXnXSXMXCXVXGXVXAXGXGXGXVXCXvXCXGXGXGXGXVXVXZXZXSXSXMXlXkXlX<X3XhX3X=X6X*X*XH.L..XXXkXMXkXdXfX1XfXXX!.n.z.l.l.l.&.-.",
"-X7X-X0XjXMXnXnXSXSXCXGXGXGXAXGXAXGXVXGXCXGXGXCXGXGXGXAXZXSXZXMXnXMXlXkXW.#X4X3X_.>X=X=X%XL.L.oXgXkXdXkXfXOX^.^.F.F.n.l.l.l.-.-.",
"-X8X8X9XhXNXAXnXBXBXVXBXBXBXBXBXGXSXGXAXGXGXGXGXGXGXVXVXVXVXZXSXCXnXFX<XFX#X4X4X9XqX,X=X$XL.K.6XzXzXsXzXpX^./.Q.Q.b.H.l.l.l.B B ",
"%X-X0X9XhXmXmXAXBXVXVXBXBXBXBXBXGXVXGXGXGXAXGXSXGXGXVXVXVXGXZXMXnXnXmXFX#X3X4X3X6X6XwX=XL..X*X>XsXMXMXdX}.OXOXz.Q.Y.H.l.l.) B ) ",
"%X8X0XhXkXnXAXVXBXBXBXBXBXBXVXBXGXGXVXGXSXGXGXGXAXGXVXCXCXZXSXSXmXnXmX<X3XhX3X4X>X7X9X=X=X=X$X).2XzXdXdX}.1X}.Q.XXF.H.H.-.B B O.",
"@X0X9XhXlXnXAXGXBXBXBXBXBXBXBXGXAXGXGXAXGXGXGXSXGXGXVXVXCXCXZXSXSXNXmXmXlXhX4X4X5XqXqX7XwX*X$XJ.jXkXOX<X`.`.n.}.^.^.n.H.O.B M O.",
"@X&X*XxXmXAXVXAXBXBXGXGXGXGXSXGXBXSXBXBXBXBXGXGXGXnXCXCXCXbXSXSXDXDXMXMXlXhXhX9X4X4X7X9X*X*XJ.M.1XzXkXoXoXOX}.XXF.XX).&.O.B O.o.",
"i.K.4XlXlXmXAXVXBXBXSXVXAXGXGXGXSXBXBXBXSXSXAXGXBXVXVXCXvXCXbXJXSXSXHXDXmXlX4X9XhX9X,X7XwX*XXXH.:XgXkXdXsX`.oXoXH.n.n.O.&.) %.-.",
"eX4X4XlXlXnXAXAXSXSXSXSXBXAXAXGXBXBXGXGXGXAXGXGXAXnXnXbXZXZXCXSXJXGX|.aXAXlX#X3XgX9X9X,X,X>X,X&X>XZ.<XpX`.!.).A.n.l.9._ X.X.o.=.",
"D.&X0XhXlXAXAXDXSXDXAXBXSXAXSXSXBXBXGXGXGXGXGXSXAXnXnXnXSXZXCXCXaXLXd 8.AXFX<X<X5X9X9X>X&X.X>X).!.A.'.|.1X(.y.x.n.&.O.$.=.-.o.O.",
"%XD.*X0XkXNXmXDXnXnXSXSXnXnXSXnXDXVXVXnXVXAXSXSXnXDXMXkXDXHXHXZXVXrXY h.GXLXFXFX5XjX5X6X1X>X'.'..X(.1X).1XZ.Z.'.G.t.&.O.=.X.M -.",
"%X@X$X0XgXmXmXnXnXnXnXnXnXnXnXDXMXSXBXBXCXbXSXSXSXDXNXMXE.g.E.aXrXj.j.j.VXVXnXFXdXjXgX5X1X.X).XXH.(.oXv.G.!.(.oX'.A.N.%.o.X.X.o.",
"%X%X%X*X9XkXxXzXnXkXnXNXnXMXkXMXSXSXZXSXbXCXHXvXaXdXZ...* * 6 t a :.;.rXVXvXvXFXzXzXjX1X1X.X!.G.G.G.!.!.`.G.).).'.G.L.=.o.o.o.B ",
"%X@X%X7XgXzXzXkXdXkXkXNXNXzXdXnXMXSXSXJXSXSX|./ { 9.v ; 8 H E t p a 4 h.CXaXFXaXdX5X1X1X.X>X).!._.B.!.oX.XG.v.x.Z.l.M.H.-.-.o.o.",
"@X;X-X9X4XFXNXlXkXMXkXlXkXnXnXnXmXnXSXDXSXMXe.] g.(.f.I z H E <.Q s s 3 g.|.aXdXpX<XoXXX).(.XX`.XXG.1XoXB.n.z.#.n.t.V.H.=.-.o.-.",
"@X-X-X0X4XlXxXmXxXnXlXNXkXdXnXmXDXAXMXSXMXbX8.0.Z.OXf.e.e.R C Q W :.>.:.;. X}.pX'.Z.!.G.).B.A.'.B.!.G.!.n.l.#.z.).r.i.&.-.-.o.=.",
"%X-X7X0XhXlXmXmXNXNXNXzXvXkXnXnXAXmXnXMXMXSXE.I y.(.n. . .E 3.W Q 3.2.:.2.P.P.`.~.`.G.`.).n.G.>XF.B.u.u.u.G.b.t.!.t.%.%.X.X.o.B ",
"-X8X0XhXlXkXnXNXmXkXzXzXkXkXmXmXmXmXnXzXzXkXNXr.k @.n.z.H 4. .T Q s s Y Q C 2.|.OX1XsX).N.!.'.B.n.B.#.#.t.t.y.y.i.#.#.%.X.X.X.M ",
"wXqX9XsXlXNXmXlXzXzXdXgXsXhXzXxXlXxXzXzXdXdXdXzX .z |  . .m.d.C s s C 5.j.Y T U.Q.}.OX`.!.N.v.n.B.t.$.@.u.r.@.0.r.=.i.%.X.n h h ",
"wX7X9XjXlXlXxXlXzXzXzX1XsXgXhXzXlXzXzXzXjXsXzX1X .l .. .d.3.4.T s T 5.5.U.j.s Q b.XX`.~.!.x.f.v.u.u.x.t.t.$.9.#.#.#.r.#.M q 1 1 ",
"8XwXqX9XjXjXlXzXzXjXsXgXjX9XgXjXgXsXzXxXgXsX1XZ.f F  .z ` 3.>.` C :.5.5.3.s.3.z U.`.^.R.q.y.N.x.y.v.0.y.u.u.u.0.#.+.$.I m e h 2 ",
"8XwX7XqXgXjXlXhXhXgXgXjX9X9X9XgXgXsXgXpXsX1X1Xn.f F Y.4.H  .3.4.;.:.:.:.s y W p } }.Z.f.y.v.Z.g.u.0.@.y.u.u.0.@.$.~ ] P n w 7 q ",
"8X8X7XqX9X9XjXgXjXhX4X2X9XcXjXhXzXsX1XsX5XXXoXb.z l e.Y.Y.Y.3.3.:.d C Q T V Y C H ~.E.q.y.Z.v.y.0.y.x.y.#.6.~ I P I ] I n r e j ",
"*XwX7X7X9X9X9XjXhX9X4XFXgXcXjX9XjX1X1XsXoX!.oXz.q l | c.Y.+XI.m.T.d.V V d 3.uXaX~.}.C.g.y.v.i.x.E.x.0.+.g.#.~ ~ ~ +.~ G n j v v ",
";X*X7X7X0X9X9X0XhX9X4XFX9X9X9X9XjXsX1X1XXXXXoX .; l  .[.m. .4.+XvXbXuX7.<.d.bXSXSXSX XE.g.g.C.~.E.C.E.f.C.g.0.6.~ +.~ ~ P A v v ",
";XwX7X7X8X4X7X0X0X0X#X&X9X6X6X5XsXsXoXoX^.H.OX..; L H 3.m.m.Y.+XuXnXbXOXbXaXuXnXbXnXnXuX X{.|.{.}./.g.C.g.g.@.} ~ P A P G P v w ",
"8X%X-X8XqX*X=X0X4X4X].3X,X,X&X>X5X5XoX!.Z.^.OXz ; ..C H m.Y.Y.Y.{.pX0.V ! ^ Y |.GXJXJXGXvX{.rX XE.c.g.p.a.h.! P G c Z c c j w w ",
";X%X-X;X7X8X*X3X$X,X&X,X,X.XG.>XsXoX`.Q.XX^./.9 ; z C T ` m.Y.m.w.~.f./. Xa.Q 3.{.R rXKXCXvXrX Xj.j.g.<.} ^ ! P A v c j c j e w ",
"eX-X@X%X7X7X&X3X&X3X#X,XoX).G.).oX).F.b.}.^.}.z * z z ` 3.m.m.d.1.7.7.a.j.k. XY a Q 3 Y vXJXvXaXj.p.;.:.^ E E G v v c j i j i w ",
"@X%XK.K.&X_.@X&X@XD._.].oX).G._.XX).F.XXQ.Q.b.f + F T T I.T.m.3.1.E S 7.|.k.p.j.P.rX XY a aXKXJXrXh.R Q H H G v c c v c j u f w ",
"K.@X_.@X_.K.&XK.(.K.V.B.H.H.G.XXoX).`.^.Q.Q.b...O 9 m.3.T.iXtXtX{.z.S 6 p = S j.j.p.p. XC - j.KXGXaXh.Y R ( ( G v k c j j e e w ",
"D._.$X_._.V.(.D.V.&XN.i.!.!.V.XXoXF.Z.^.XXY.b.w.O * ` 5.T.bXbXbXiX{.I.` y p ;.<.<.<.h.h.h.d X 8.KXKXvXj.( ( Z Z v k j g j j j g ",
"D.=X3XM.(.Z.g.(.A.3XkX(.2XoXu.B.!.F.b.!.n.z.Q.w.O O T 3.T.iXbXbXuXtXm.2.p.7.2.7.8.1.<.:.Q ;.R X p vXJXVX Xd ( i v k j j j x f f ",
"D.D.V.N.S.Z.1X3X'.#X|.1X).n.n.XXXXQ.XXU.^.OX`.F.* O 3 T k.T.bXJXyXyXT.H ,.2.,.<.<.^ Q R ;./ / ;.- - rXKXLX#Xi ( A c k x x j e f ",
"S.i.r.i.g.A.#X!.|.(.N.Z.z.XX^.^.}.}.b.b.`./.v.Q.z O * V 5.+XyXbXiXyXyXm.:.Q W W ^ ^ W { ,.{ / / h.a   p.KXKXW.( A v v x x j j j ",
"W.W.W.W.!.`.!.x.`.u.y.f.B.).Z.f.b.b.b.n.f.q. .7.l O * y 5.T.tXuXJXyXtXiX{.:.Q ^ <.;.E ^ { } ! E / 8.D   p LXLXh.A G G c m v n x ",
"S.S.#XW.x.i.!.u.0.0.6.r.0.e.w.t.b.Q.Q.f.6.f.a.m.C O 3 y :.5.{.yXbXiX{.iXyXh.Q W ,.1.{ ! { ^ J { R S / Y $ . d #X|.+.G m m x x c ",
"i.i.M.#Xt.i.!.`.N.C.0.q.w.z.Q.e.e.z.z.u.R.c.a.s.z O 3 z :.5.T.tXiXiX+XyXyXd.Q ,.<.| { { { I ! E R Y Y / 8.a o = #X].v L F l c k ",
"S.*.V.K.!.).!.!.v.v.z.z.z.b.z.n.z.z.z.z.e.|  .7.H # y Q ` 3.k.[.yXiX+XiX{.2.3.,.{ 1.<.<.^ ! ! ! E J R J J +.P   . - c P G v v v ",
"].D._.).x.B.!.C.u.z.x.e. .@.9.e.#.#.|  ...K R <.T O 3 ` 2.5.5.m.T.iX+XiX[.W {  .^ ^ / } / ! E ^ ^ / ! / ! P / | 5 $ I P A b c v ",
"i.V.).V.B.N.C.f.u.x.z. . .| 9.[  . .H ..K E K } H # 4 C 3.5.2.d.m.+XT.T.s.E <.<.<.{ / { } / { }  .{ ! J ! ~ P P +.~ P P P v c x ",
"#.A.i.N.B.y.x.y.0.e.| ' ]  . .' K K ..K ......' H % * s T >.>.5.m.I.Y.5.<.<.8.1.{ | +.{ / } } ^ E I ~ / ~ ! ' P ( P P P L n v x ",
"#.r.#.#.u.+.#.[ [  .@.K ..K 9.e.F '  ... ... .....* * z H T >.{ 5.m.U.^ E 1.6.6.| ~  .| 1.1.{ { { { +.+.[ ' ! I I A P I G n x x ",
"( ~ $.I @.~ I I ....' K K ' z.w.e.e.K  .e.` .. . .3 + f H W W T ` 5.a.` { ! / @.} } 9.| 6.8.2.<.| { @.} | | ! I ~ P P I G n n x ",
"c ( I I ~ K J F L K F ..T z.9.K @.I ] ' .. . . .1.f % ; 9 V V l V ` 1.1.6.] ! q.f.| | | 1.1.<. .| | | 6.@.$.[ ..P G P A n v m N ",
"i A P v j F J I K K ` ..T Y.{ ! ! _ ' .. . .|  .] ; = ; 6 6 6 6 ; V H  .} } v.C.v.f.| | } { <.} 1.| } } @.[ [ ' ! P G G v n x x ",
"w i i i l m j 9 z ..F ` [.3.`  .[ I I '  .|  .1.' * > f u k l k * ; S 8.| / ~ } q.x.] ] { {  .1.6.} ] ] [ [ I ' ' P G G G n x x ",
"u i i j j m f 3 z F ..l l F [ ' | ] [ {  . .| 9.8 % j V v V Z ! J j J | p.q.8.6.+.] } ] ~ 1.1.8.| } } ] ] ' I ..' L G G L x x x ",
"i c i u g l l m F F .. .F G ' [ ] [ | @. .| | 8 % ; ..! A k A / +.{ Z k k I | 6.{ 6.8.} @.1.| } } { ! ] ] ] ' ..I P n x j x j g ",
"w i w q z L F l ..L .. .' I { [ ] ]  .6.6.I ; + ; ] @.@.} ~ { } } +.@.I k w G 6.8.{ | } ~ { } { ] I I I I [ ' I I G v x x m j g ",
"w u u i r F F Z H K F L L _ ' ' _ [ | 9.L % $ , ] @.| | 6.| | @.+.+.@.0.y.+.@.v.7.~ { } } / | } ! J ' ..' [ I K ! G G v x g g h ",
"0 w u k i v Z Z L F m I I .._ I [  .9.m % O 9 |  .$.6.@.| ] } @.@.@.@.0.+.0.@.} { / ^ ^ / ^ ^ ^ { K ' .._ ] ! ' I G F m g g f h ",
"w w w i j l v v m V _ I P I I I  .[ f & * m @.| 6.@.| [ } @.@.| @.[ @.@.@.6.@.} / ! / R R ! I ' ' ..'  . .[ ! J G n m x g g f q ",
"7 w u u u z l F I L I L I I I _  .1 % % l  .' } [ [ | | } @.6.@.@.@.| @.+.@.@.] ! R ! ! R J I { ' ' ' ..] ' K F n n m x g f 9 q ",
"7 7 w e e c i ~ ' L G ' L I L $.7 O m .Xt...[ [ [ [ @.} [ @.@.@.[ +.@.@.+.+.[ ] ' I P I I I K I ! ' E K G K I I G x g f g f q < ",
"> > 7 e w r i i c A L ] _ M _ x + j ).u._ [ [ $.} [ [ ] ] | @.@.@.@.@.8.+.[ ] [ [ ] ' ! J I I K K I I J F K L K n n g f h h q 7 ",
"> 0 7 w e e b b v G G M M M &.& + $.+.U $.[ [ ' ] [ ] ] ] } @.@.@.@.+.+.~ ] } ] ! I ! I K G F J K P I G F F G x n $.g N 2 2 2 < ",
"> > 0 w e f i i x v U U M M.o.@ q ] _ $._ _ [ ' ' ' ~ [ ] } 6.+.} } } ] +.] ] ] ] ' G F K J J K P F G v F l v x x g q 2 < < 2 1 ",
", > < q w r r i i b r i X.X.& @ U $.P _ ~ _ ] ] [ ' ] ] ! [ +.} ~ ~ ~ +.+.} ~ I ! I I G P P I ! I G v v Z v v x g q q 2 2 2 1 1 ",
", , 5 5 5 0 r 0 b 0 o : N N + + U U P ~ I ~ P ~ ~ ~ I P ~ +.$.~ ~ $.( $.~ $.~ ~ ~ P P ( P I I P P A c k v G v x x f q q 2 1 1 1 ",
", , 5 0 0 i r r ( r i X.M b @ & +.P ~ ~ ~ ~ +.~ +.~ ~ ~ +.8.+.+.+.+.+.+.8.8.+.+./ P ~ ( P P P ( ( P ! P G A n v G x r 2 q 1 1 1 ",
"$ & = & & , : , > > > 5 5 > . o w w u e i i i i i i i i i A b i c c b ( i i i i i w w w w w 0 6 5 0 i e e 7 5 5 5 > , : & & & & "
};
