/* XPM */
static char *_6e41ffb501e40a6c68f1667ab093808RhOOK5ahLm7pWBeb[] = {
/* columns rows colors chars-per-pixel */
"64 64 255 2 ",
"   c #040101",
".  c #0A0201",
"X  c #04030B",
"o  c #010A0B",
"O  c #090809",
"+  c #160A02",
"@  c #08150A",
"#  c #1C1504",
"$  c #020413",
"%  c #02051C",
"&  c #020B1D",
"*  c #080916",
"=  c #07141A",
"-  c #111115",
";  c #260600",
":  c #271803",
">  c #341503",
",  c #370D01",
"<  c #112E11",
"1  c #2B2003",
"2  c #372801",
"3  c #372B16",
"4  c #313216",
"5  c #020622",
"6  c #040A24",
"7  c #0B0B23",
"8  c #060A2C",
"9  c #0A0C2D",
"0  c #03132B",
"q  c #071628",
"w  c #141428",
"e  c #050D32",
"r  c #0A0E32",
"t  c #0C0F3A",
"y  c #021335",
"u  c #02153B",
"i  c #0C113C",
"p  c #031B3D",
"a  c #081935",
"s  c #141337",
"d  c #120D2C",
"f  c #211B28",
"g  c #2B1F33",
"h  c #09213B",
"j  c #192E34",
"k  c #2E2D32",
"l  c #451B0A",
"z  c #442802",
"x  c #483604",
"c  c #593801",
"v  c #512E15",
"b  c #663C0B",
"n  c #513626",
"m  c #653C2C",
"M  c #31431C",
"N  c #314E2E",
"B  c #305735",
"V  c #544912",
"C  c #684400",
"Z  c #754A03",
"A  c #795403",
"S  c #7A5515",
"D  c #6C4D13",
"F  c #7A640F",
"G  c #4F4D2C",
"H  c #714F2D",
"J  c #4A6838",
"K  c #786525",
"L  c #6D6E31",
"P  c #041541",
"I  c #091543",
"U  c #021B44",
"Y  c #021E4A",
"T  c #091A44",
"R  c #131442",
"E  c #03224B",
"W  c #072548",
"Q  c #162548",
"!  c #022552",
"~  c #032A55",
"^  c #032B5A",
"/  c #03265A",
"(  c #03315B",
")  c #172751",
"_  c #2B2E4C",
"`  c #063563",
"'  c #4A3D45",
"]  c #765547",
"[  c #724C49",
"{  c #51724E",
"}  c #706D4A",
"|  c #5C4F57",
" . c #38774A",
".. c #87580C",
"X. c #8C640B",
"o. c #946805",
"O. c #89631A",
"+. c #976918",
"@. c #9B771A",
"#. c #9A7609",
"$. c #A47907",
"%. c #A77B1A",
"&. c #A26F16",
"*. c #885A33",
"=. c #886729",
"-. c #956727",
";. c #9B7927",
":. c #8D7736",
">. c #957A37",
",. c #916F31",
"<. c #A87B29",
"1. c #A8773A",
"2. c #AA7622",
"3. c #835A49",
"4. c #96684B",
"5. c #926C5B",
"6. c #9A7458",
"7. c #8D6F4A",
"8. c #A67844",
"9. c #A77754",
"0. c #9C7666",
"q. c #947269",
"w. c #A67A67",
"e. c #A67D73",
"r. c #3E925D",
"t. c #46935C",
"y. c #518A56",
"u. c #6C8954",
"i. c #439562",
"p. c #459965",
"a. c #4B9C65",
"s. c #4C9B68",
"d. c #579867",
"f. c #588C65",
"g. c #659867",
"h. c #669774",
"j. c #71936B",
"k. c #4EA169",
"l. c #4CA167",
"z. c #53A56C",
"x. c #58AA6D",
"c. c #5CAC73",
"v. c #56A970",
"b. c #5FB173",
"n. c #67A56B",
"m. c #62AD76",
"M. c #66AC78",
"N. c #74AA75",
"B. c #63B175",
"V. c #6AB179",
"C. c #74B278",
"Z. c #77A466",
"A. c #7AA45C",
"S. c #AD8505",
"D. c #AC830A",
"F. c #A9850B",
"G. c #B28603",
"H. c #B58A02",
"J. c #BA8D02",
"K. c #B58C0C",
"L. c #BB8D0C",
"P. c #B4850A",
"I. c #BE9102",
"U. c #BD910B",
"Y. c #AA8617",
"T. c #BB8D14",
"R. c #B58A19",
"E. c #BC921C",
"W. c #BB9115",
"Q. c #97822E",
"!. c #A98827",
"~. c #B98C28",
"^. c #BD9223",
"/. c #B8922A",
"(. c #A88736",
"). c #B88B38",
"_. c #B89336",
"`. c #AC9139",
"'. c #9F821A",
"]. c #C19301",
"[. c #C1920C",
"{. c #C1931A",
"}. c #C08E19",
"|. c #C49528",
" X c #C49636",
".X c #C18E30",
"XX c #C5A23E",
"oX c #91894D",
"OX c #B78945",
"+X c #B89746",
"@X c #B09151",
"#X c #999A77",
"$X c #928B71",
"%X c #AD846B",
"&X c #B4876C",
"*X c #AA8676",
"=X c #B68B79",
"-X c #B9927B",
";X c #AE9973",
":X c #86A975",
">X c #94A573",
",X c #B5A95B",
"<X c #C29846",
"1X c #C6984F",
"2X c #C7A145",
"3X c #C79878",
"4X c #C49869",
"5X c #D5AA73",
"6X c #72AF81",
"7X c #978589",
"8X c #B89585",
"9X c #B59186",
"0X c #B0A988",
"qX c #9FA498",
"wX c #C59B88",
"eX c #C69E93",
"rX c #C8A58B",
"tX c #D3A589",
"yX c #CAA596",
"uX c #D5AA98",
"iX c #D8B39C",
"pX c #D1B492",
"aX c #E3BA97",
"sX c #D9B8A8",
"dX c #D1B4AB",
"fX c #E5BBA8",
"gX c #E4BDB3",
"hX c #D6C9AA",
"jX c #DCC5B8",
"kX c #E9C5AB",
"lX c #F3C6AC",
"zX c #E9C7B8",
"xX c #F4CBB4",
"cX c #F4CBBC",
"vX c #F8CBB7",
"bX c #E6D3BA",
"nX c #FDD4BD",
"mX c #F9D5BA",
"MX c #F8D6AB",
"NX c #EAC490",
"BX c #E8CDC4",
"VX c #F3CDC2",
"CX c #FACFC3",
"ZX c #ECD1C3",
"AX c #EAD5C7",
"SX c #F5D3C4",
"DX c #FBD4C4",
"FX c #FCDAC5",
"GX c #F6D5CB",
"HX c #FBD6CB",
"JX c #FCD9CC",
"KX c #F4D9C7",
"LX c #FDDBD2",
"PX c #F7D7D0",
"IX c #E6CFCA",
/* pixels */
"e e e y y e e e 5 5 & % % % 5 % 5 5 5 % 5 % % & % 5 % % * X * * X X X   X X X X * $ $ $ $ $ $ $ $ $ % % % 5 8 8 8 8 8 8 9 9 e 8 ",
"y y y e y y e e 8 5 % % % % 5 5 6 5 6 5 & % % % % $ $ * X X . X   .             X X o $ $ $ $ $ % $ $ % % 5 8 8 8 8 8 8 9 9 9 9 ",
"e y e y y u t y 8 6 5 % 5 5 5 5 5 5 5 5 $ * X * $ X f f     . + # : : 2 2 1 : + O X X o o $ X $ $ % % % % 5 8 8 8 8 8 e 9 9 9 e ",
"y y y y y u y y 8 8 6 6 6 5 % 5 5 5 % $ * O . . : n 3 # > V H K =.:.:.>.Q.oXQ.} } 3 .   O * o * $ $ $ $ % 5 6 8 8 8 8 8 9 r e 9 ",
"u y y u u u u u e e 8 8 8 6 5 % 6 & * *   . # x K H x S ;.!.!.Y.Y.'.@.!.(.S D V v 4 # +     o o X X $ $ % 5 6 8 8 e e e e t 9 9 ",
"y u u u u P u u u e 8 e 8 7 7 5 7 * X . . 2 =.(.!.@.'.R.K.G.P.S.D.S.S.Y.Y.Z C C x : : x G 4 4 #   X $ $ % 5 6 8 8 8 8 9 e e t e ",
"u u u P u u P P P e e 8 8 7 5 * * . . : K 1.!.R.Y.D.S.D.S.G.G.G.S.S.G.D.S.F.F.!.!.@.C z C L G 1   X X $ % 5 6 8 8 8 9 9 e e 9 t ",
"P P u u U p U u I P P e 8 8 7 - . . x ,.(.!.Y.S.H.H.H.J.H.H.H.J.H.H.H.H.G.H.S.S.S.F.Y.'.A V V 2 .   o $ % % 6 8 9 e r r e e 9 e ",
"U P u U u p U p I T i u r d w   + V Q./.Y.K.K.H.H.J.J.J.J.H.J.J.J.H.H.G.H.G.G.G.S.S.S.$.Y.X.C 2 #   X $ $ 5 6 6 9 r r r 9 r r r ",
"P U U U U U p p T T T i r w O . V +XY.K.K.I.I.H.J.H.J.J.H.J.J.J.J.H.H.H.G.H.G.H.G.S.G.D.S.Y.@.D :     X % 7 9 9 d t t r r 9 r r ",
"U U U U U U U U U U T r w - . x Q.!.K.K.J.I.I.J.I.H.J.H.I.J.J.I.I.H.J.H.H.H.H.H.H.H.H.G.G.$.Y.!.C +   X * 7 7 9 d d t r e t e e ",
"U U U U U U E U Y U T a w   2 OX_.F.K.H.J.I.I.I.I.I.J.I.I.I.I.J.I.I.I.J.J.J.H.H.H.S.H.H.G.S.S.F.Q.V . . O 7 7 8 r r 9 e e e e e ",
"Y Y U U U Y U U E T W w - # K /.E.K.J.I.I.I.I.I.I.I.I.I.I.I.].I.I.I.J.].J.J.H.H.H.H.H.H.G.G.G.$.F.@.1   X - 9 9 9 r r r e y r y ",
"Y U Y Y Y Y Y E U U j w   H +XY.K.H.J.I.I.I.I.I.I.I.I.I.].I.].].I.I.J.I.J.J.J.H.J.H.H.H.H.G.G.G.S.'.K #   * 7 9 r r r r y e y y ",
"Y Y Y Y E Y E E E p a - ; } F A S.U.I.I.I.I.I.I.I.I.I.I.].].].].I.I.I.].J.J.J.J.J.J.H.H.H.H.$.G.S.F.'.V . O 7 7 d r r 0 y e e y ",
"E Y Y Y E U E E E a q @ n V x #.T.U.I.I.I.I.I.I.I.I.I.I.].].].].I.I.].[.H.L.J.].J.J.J.H.J.H.].G.S.S.'.K # . * w s r r r r e y e ",
"! Y Y ! Y E Y E W a w . 2 D (.^.W.H.L.[.H.].J.I.].I.I.].].].].].].].].[.$.$.P.[.[.J.J.J.P.J.].$.S.#.X.L 4 . O w s r r t y y y y ",
"! Y E E Y Y U W h s w . 2 8.~.E.K.S.[.L.J.J.I.I.I.[.U.J.[.].].].J.].].{...Z P.L.J.J.J.J.].J.].P.K.#.C V v . O d d t r i t y y e ",
") ) ! E E W Q Q T w O v oX+X~.R.D.$.H.[.I.I.I.I.J.[.$.o.[.].].J.].J.[.T.b o.R.L.[.J.J.J.J.P.J.P.P.Y.A : # . O w s t i t i y u u ",
") Y T W W W ! Q Q w # L &X_._.^.%.o.P.T.K.U.U.U.L.L...o.[.].J.].J.[.{.%.b %.|.}.}.P.J.J.J.J.J.J.P.R.!.2 . . O 7 s t i I u u u u ",
"g Q Q Q ) W Q Q Q w 1 } @X_.^.E.R.X.%.|.R.^.E.E.}.o.Z P.J.].].I.L.{.~.C b ~.~.R.}.}.}.L.].].J.J.H.F.!.V     X 7 t t t t i u u u ",
"f g g _ ) Q ) ) Q j 4 7.+X/.E.T.}.o.$._._./.~./.%.b ..}.[.[.J.[.}.|.X.z +..X%.$.}..X}.}.}.$.$.].H.K.W.F #   X 7 s I t t P P u u ",
"7X' f f Q _ ) _ _ _ 4 7.`.^.E.W.|.$.A ).).).). X..Z ~.^.E.T.W.{..X+.c +..X2.....2..X.X.X..c $.L.K.H.K.!.x . X d s R t I P P P u ",
"AXdX7X| g Q _ _ _ k n :.`.^.E.E.|.!.b +. X<X).O.c ;. X~.|.^.^.2.&.b O.1X&.o.%.}. X.X.X2.z ..|.K.U.K.K.`.V . O 7 d R t I P P u P ",
"BXAXIXIXqX| _ _ _ _ n >.`.W.E.E.}.^.+.c +.).S l S OX<X<X~.+.O.-.Z -.OX..Z )._. X_.<.O.2.b X.|.}.K.U.K./.K + . 7 s R R I I I P P ",
"bXdXjXIXIXIX7X' _ n n @X_.E.E.E.}.^.<X;.A S z b 8.8.=...S 1.5X4XS b D =.@XOX<.<.(.(.5XNX..o.~.T.W.W.K./.,.: + d R R I I I I t P ",
"zXsX8XdXBXBXIXqX' f 3 oX_.^.E.E.E./.1X5XaXtXaX=X6.4.3.H m &XgXw.m b l m *.8.6.@XpXMXmXNX..+.~.T.U.U.W.E.Q.x + 7 s R R I I I P P ",
"8XbXdX8XdXGXGXBXdXG # c `./.E.E.{. X1XNXmXxXyX=Xw.w.rXfXeX5.fXBXzXiX*X5.$X*X8XkXmXKXFXNX*.2./.|.W.U.U.E.`.x + 7 d R I I I Y P P ",
"%XrXcXsX=X9XzXBXBXyXv : O._.^.E.|./.+XaXMXfX4.wXuXm l [ 3.eXIXPXAXjXKXLXcXsXwXiXSXKXFXpX*.). X}.L.L.W.^.+XV + 7 d i I P Y I Y U ",
"sX0.rXDXfX0.0.jXBXAX*X> F _.|.T.{.|.2.tXnXcXwXw.0.v n eX=X[ gXPXAXdX9X3.] 0.*X8XbXJXFXrXO.OX X~.P.P.K.E.+XK # * 9 r y I I Y Y Y ",
"mXsX0.yXSXzX9X5.sXKX;Xz -.<X X|.|.~.-.fXFXGXSXyX3.v l [ [ 5.gXPXLX8X] *X*X> , H w.kXJX3XD ).).2.D.W.K.R.`.Q.:   7 e i I Y I Y Y ",
"ZXKXuXq.sXKXcX-X0.bX;X2 ,.<X.X|.|.~.1.fXDXGXJXLXCXgXeX9X9XgXPXPXAXyX9X5.=Xm , q.3.8XFX%X..1.+.o.~.W.K.F.S K 1 X 7 e i T Y ! Y ! ",
"ZXZXKX*X5.kXHX9X] zX0X2 -.<X.X|.|.2.1.xXKXGXLXGXBXgX9Xe.gXLXPXGXBXyXgXeX0.5.6.8XuXzXmX9.8.1.2.2.~.T.K.Y.V x 1 X 5 e y p T Y ! ! ",
"BXZXGXgX*XsXcX] *XKXsXv =. X X|.|.2.8.vXSXGXPXGXVXVXsXgXGXPXLXLXcXeXBXgX=XeXgXDXFXFXaX,.8.-.1X<.R.~.W./.S 2 : X 5 e u p Y Y ! ! ",
"sXVXSXzXdXZXfX[ yXAXjXH O.+X|.{.|.%.8.vXSXKXGXGXPXPXLXLXPXPXLXLXcXwXVXVX%X3.%XkXDXFX3XD S 5X5XX./.^.^._.=.: # * 5 y u T Y ! ! ! ",
"sXBXcX9X8XGXeX] jXAXzXH =.+X X{.|.&.@XnXHXPXPXGXPXHXPXPXPXPXLXJXcXwXgXLXJXFXDXcXDXfXH b 3XMX5X&.~.R.R._.=.: 3 k 6 y p U E ! ! ! ",
"zXSXcXq.8XGXe.[ BXIXBX] H ,X X{.|.%.4XnXSXJXHXLXPXHXPXPXPXHXPXJXcX=XkXLXHXJXFXDXFXrX*.3XMXlX<.&.E.R.R.~.,.; + _ 0 0 W W ~ ~ ^ ~ ",
"BXVXsX5.sXBX] G dXIXBXH n ,XXXE.|.&.4XDXHXHXLXGXPXHXHXHXJXPXJXJXFX-XuXJXJXKXKXFXFXvXnXnXmX4X..2.T.K.R._.>.: . q q h h W ( ( ^ ~ ",
"zXSXrX0.zXdXm : q.jXgX] x @X2X|. X+.4XFXHXHXJXHXHXHXHXGXGXHXHXHXLX-X8XLXJXFXFXHXHXDXCXvX5X..o.}.K.K.T./.,.: . 7 0 h W W ( ( ^ ^ ",
"BXZX*X*XcXqX3 : } dXbX5.> >.2X|. XO.5XFXDXDXHXCXuXsXLXCXHXHXGXHXFX8X=XFXHXHXFXKXHXHXvX3X..&..X2.L.L.R./.K + O 7 a h h ~ ( ` ` ( ",
"AXBX$X;XBX$X# 4 } pXjX} : =.XX|. X2.tXFXnXDXDXiXtXe.fXCXCXHXHXHXLXwX&XDXDXJXHXFXJXFXuX..-.1X.X}.W.K.W./.K + O 7 a h W ~ ( ` ` ` ",
"AX0XH 3 } N + { J j.0XG 2 =.XXXX.X1.lXHXDXFXlX-XfXeXw.wXeXfXfXgXiX*X9.fXDXJXHXDXGXFXtX*.8.<X}.}.W.K.!.Q.D + = q j W W ^ ( ` ` ( ",
"bX} < M J < N Z.Z.J J u.L K +X2X<X1.fXHXDXHXtX&XCXCXgXeX9Xe.w.e.e.sXwX=XHXSXHXKXHXCXtX-.OX XE.W.W.'.F :.G   q p E ! ~ ^ ^ ^ ` ( ",
"#X4 N :X:Xh.N.C.C.x.A.:XA.L `.,XOX1.fXHXHXDX=X3XCXHXHXPXDXvXvXvXHXLXyXw.cXSXSXSXDXCX3X-.OX).R.K.Y.'.x :.G X 0 h ! ^ ^ / / ! ^ ~ ",
"< < j.6XN.6X6XV.C.C.C.C.A.J Q.<X2.8.gXHXJXgX=XvXCXPXPXPXLXLXPXIXGXGXgXe.fXHXmXFXDXvX1X-.8..XE.R./.C M L # * a E ! ^ / / ! ! ! E ",
"{ y.N.6X6X6X6XV.B.B.C.C.C.u.F `.1.8.vXHXLXuX9XHXVXuXeXeXeXyXdXgXBXGXHXe.eXHXDXDXDXlX4.O.<X X!./.Q.1 V G @ w a E ! ^ / / ! Y Y U ",
"C.C.6X6Xc.6X6Xm.B.C.b.C.B.A.L ;.1.9.CXHXPXdXeXyX[ l l , , > n n [ 9XGXyXwXDXDXDXKXkX,.+.).).!.;.2 4 L # @ q h E ! ! / / E Y U U ",
"6XM.m.m.m.b.6Xm.B.b.b.C.C.:X,X1.*.4.CXPXPXeX9XwXm n v n n n > ; + ; [ 5.=XDXDXDXFXkX-.-.OX).;.V . 4 4 @ = 0 h ~ E ~ / / E U U U ",
"c.m.M.c.c.c.6X6Xb.b.B.C.:X>XhXMXtXw.cXHXHXgXsXHXgXgXgXzXcXgXdX9X0.m , l =XDXSXSXKXsX*.=.@XoXx .   @ - = q a W ! ~ ^ / ! Y U P P ",
"c.M.M.M.6Xm.c.b.b.b.b.C.:X>XhXmXxX-XzXJXHXJXLXHXLXLXLXHXHXHXHXJXJXgXwXwXzXDXSXSXFXyXK 8.@XH .   o @ = q q h W ! ~ ^ ! ! U P P u ",
"v.c.c.c.b.m.c.M.b.B.b.C.>X>XbXKXxX=XkXHXHXHXHXHXHXDXHXCXDXnXCXDXCXHXHXDXCXSXHXSXmX0XL oXL M n o @ = = q 0 h E E ~ ~ ! Y U u P u ",
"c.v.v.6Xm.c.M.m.b.b.c.V.A.>XKXKXmX-XsXJXCXGXCXCXCXHXDXDXDXCXnXDXDXDXSXCXSXDXSXSXmX0XoXL V u.j.@ @ = q h a W E ! E E E U P u P u ",
"c.c.c.c.c.c.m.c.b.b.b.n.{ 0XAXKXDX3XwXFXCXCXHXCXHXCXCXCXDXCXCXDXDXDXSXSXCXSXSXBXzX7.V B u.:Xj.< o = q q h h E Y Y Y U P u u u u ",
"v.v.c.c.c.c.c.c.x.b.b.n.L 0XbXKXfX4.w.DXHXvXfXfXHXCXHXCXCXnXCXDXDXSXcXHXHXCXVXGXhXu.u.u.Z.h.h.j o = = h h W W Y Y Y U u y u u p ",
"v.z.c.c.c.v.c.c.b.x.b.n.J 0XKXKXe.l 4.vXCXfXe.wXCXCXCXHXDXnXCXnXCXDXDXgXzXHXAXbX>Xu.A.n.d.n.6Xj o = q 0 h h h U U U u u u u u u ",
"z.z.z.z.z.v.v.v.x.x.x.b.J >XKX;X*.*.m uXvXfX3XtXvXCXCXCXCXCXDXDXSXCXHXeX*XBXBXdXM B n.n.d.s.h.B o = q 0 a h p p P u u p u y p y ",
"k.k.z.k.k.v.z.v.x.x.x.z.J 0XhXH w.fXH &XnX=X4.iXSXcXVXSXDXCXSXSXCXVXVXfXe.sXBX$X<  .c.d.d.d.h.j o = 0 0 y p p u u u u u u u y y ",
"k.k.k.k.k.k.z.z.z.v.z.n.J #XhXfXlXcXwX3.fXlXaXwX-XxXDXZXVXVXSXSXVXDXuX8XgXgX#X@ B z.d.k.s.d.h.B o & 6 0 0 y y u u y u y y y y p ",
"s.k.k.k.k.z.k.k.z.v.l.B.{ } ZXKXVXVXDX-X*.tX=X6.rXkXsXcXVXVXAXSXZXBXsXyXBX0X4 M d.z.l.l.a.d.g.N X & & 0 0 y y y y y y y y y y p ",
"a.a.p.s.k.k.k.k.l.l.z.B.u.} hXbXVXVXcXxXwX4.9.lXxX4.=XzXiXcXzXuXzXZXZXbX0XG B f.a.t.t.t.t.d.f.j o o & q 0 0 y y u y y y y p y y ",
"t.p.p.s.s.l.k.l.s.k.z.n.g.J 0XbXzXVXcXcXvXfX3X&X4.v =X-X3.gX8XG 0X0X#X} M B g.d.t.i.t.t.p.f.i.< o * & q 0 y y y y y y y y y y a ",
"t.i.i.p.p.p.p.k.a.z.d.d.j.J } kXxXzXcXvXvXvXvXaX4.H *.m V ] 4 1 4 M G J y.d.f.p.r.t.t.t.i.d.{ = X $ & 0 0 0 y y 0 y y y y p p a ",
"i.i.i.i.p.p.p.p.p.a.d.d.g.f.4 ;XxXlXvXvXvXlXlXfX4.wXkXrX0X#X4 J { j.Z.j.g.y.t.i.r.r.r.y.y.f.{ @ o $ = 0 0 y y y y e y y y y y y ",
"t.i.r.i.i.i.p.p.p.a.s.d.g.j.N L kXlXlXlXvXgXlX%X4.fXkXbXhX} 4 { u.g.g.f.y.t.t.r.r.r.r.r.y.f. .@ o * * 0 0 0 e y y y y 0 y y p a "
};
