/* XPM */
static char *_dd13ef92d194d0e8902a19f6544f05fIY2oUX4tyfmhGC8u[] = {
/* columns rows colors chars-per-pixel */
"32 32 177 2 ",
"   c #190707",
".  c #201307",
"X  c #220E13",
"o  c #2E1818",
"O  c #2A161A",
"+  c #361E1C",
"@  c #321A16",
"#  c #39211F",
"$  c #382A19",
"%  c #3B3914",
"&  c #371C20",
"*  c #381F20",
"=  c #3D2623",
"-  c #3F2824",
";  c #362325",
":  c #412A25",
">  c #452F29",
",  c #443125",
"<  c #49362B",
"1  c #4C3433",
"2  c #4B4C1F",
"3  c #535E18",
"4  c #5A7014",
"5  c #4C452A",
"6  c #564536",
"7  c #584B35",
"8  c #5E4D3D",
"9  c #544834",
"0  c #5F5A32",
"q  c #60513E",
"w  c #606A22",
"e  c #686637",
"r  c #6D6E39",
"t  c #696C34",
"y  c #71743B",
"u  c #767E39",
"i  c #614F42",
"p  c #6A5F44",
"a  c #6B6243",
"s  c #70614E",
"d  c #766952",
"f  c #807E53",
"g  c #877C61",
"h  c #6F8A1F",
"j  c #6C8521",
"k  c #788F2E",
"l  c #769225",
"z  c #77912A",
"x  c #7B962D",
"c  c #7D992E",
"v  c #7F8B3F",
"b  c #7A873A",
"n  c #7D9531",
"m  c #7F9931",
"M  c #819D2F",
"N  c #829D33",
"B  c #82943B",
"V  c #859A3B",
"C  c #889D3F",
"Z  c #86A236",
"A  c #89A735",
"S  c #8CAD36",
"D  c #87A238",
"F  c #8AA53A",
"G  c #8EAA3D",
"H  c #90AE3E",
"J  c #91B13B",
"K  c #828D43",
"L  c #859344",
"P  c #899C42",
"I  c #8D9C4A",
"U  c #899849",
"Y  c #909F4E",
"T  c #89845D",
"R  c #888858",
"E  c #8E9259",
"W  c #8C9454",
"Q  c #959E5B",
"!  c #8CA044",
"~  c #8FAB41",
"^  c #92AE41",
"/  c #92A64B",
"(  c #94A94A",
")  c #95B244",
"_  c #99B647",
"`  c #99B844",
"'  c #97B04A",
"]  c #9AB649",
"[  c #9EBC4C",
"{  c #95A555",
"}  c #98A857",
"|  c #9DB852",
" . c #A1BE4E",
".. c #A3BC56",
"X. c #968E6E",
"o. c #9D9C6E",
"O. c #999170",
"+. c #9D9278",
"@. c #A09A77",
"#. c #A59E7C",
"$. c #9FAD62",
"%. c #9CA562",
"&. c #9EA172",
"*. c #A1A968",
"=. c #A1A76A",
"-. c #A3B164",
";. c #A7A877",
":. c #ABAC7A",
">. c #A9A47E",
",. c #AEB07D",
"<. c #ACB674",
"1. c #B1B57C",
"2. c #A1C14D",
"3. c #A5C352",
"4. c #A8C655",
"5. c #A9CA54",
"6. c #AECB5C",
"7. c #ADC564",
"8. c #B1C669",
"9. c #B7CD78",
"0. c #BACB75",
"q. c #BBD37A",
"w. c #C1D57C",
"e. c #917D81",
"r. c #968988",
"t. c #988687",
"y. c #A99F93",
"u. c #B09D9A",
"i. c #BDBB8F",
"p. c #BFBD91",
"a. c #BDACAC",
"s. c #CFBABF",
"d. c #BBC08B",
"f. c #BFCD99",
"g. c #C1CB89",
"h. c #C7D38A",
"j. c #C2D281",
"k. c #C8CA97",
"l. c #C6C898",
"z. c #C0D092",
"x. c #D0D89C",
"c. c #CDC9A5",
"v. c #D1CEAB",
"b. c #D3D5A2",
"n. c #D9DCA7",
"m. c #DBDDAA",
"M. c #D4D9A3",
"N. c #DDDCB4",
"B. c #DDE1AB",
"V. c #D3E3A9",
"C. c #EBDFCE",
"Z. c #E8D5D7",
"A. c #EBDFD3",
"S. c #E1D0D1",
"D. c #DDE6C5",
"F. c #E7E0C7",
"G. c #EAE6CA",
"H. c #EFE2DA",
"J. c #EBE0D4",
"K. c #F2E6D7",
"L. c #F3E5DB",
"P. c #F7E7E3",
"I. c #F8E4E7",
"U. c #F8E8E7",
"Y. c #FFEBEE",
"T. c #F6E8E2",
"R. c #FFF4EE",
"E. c #F1F2EF",
"W. c #FFEFF7",
"Q. c #FFEDF5",
"!. c #FFECF2",
"~. c #FFEFFA",
"^. c #FFF1F4",
"/. c #FFF1FB",
"(. c #FFF5FA",
"). c #FFFBFF",
"_. c #FFFBFC",
/* pixels */
"Y.Y.Y.Y.Y.Y.Y.Y.!.Y.c.( Z c x C $.l.U.!.Y.Y.Y.Y.Y.Y.Y.Y.Y.Y.!.Y.",
"Y.Y.Y.Y.Y.Y.Y.Q.H.$.m [ [ x x x l l } H.~.Q.Y.Y.Y.Y.Y.Y.Y.Y.Y.Y.",
"Y.Y.!.Y.Y.Y.Y.U.-.S 3.4.) x c x n x l { N.N.Y.R.Y.Y.Y.Y.!.Y.Y.Y.",
"Y.Y.Y.Y.Y.Y.Q.g.` 4.3.[ m x x n c x x c S J M.^.Y.Y.Y.Y.Y.Y.Y.Y.",
"Y.!.Q.!.Y.Q.F.4.3.3.3.G z x c x x x z F m j 6.T.!.Y.Y.Y.Y.Y.Y.Y.",
"!.L.v.U.Q.T.7.[ 3.5.4.[ D N x c x c x ~ ~ n d.Y.Y.Y.Y.Y.Y.Y.Y.Y.",
"!.K.) -.J.h.2.5.[ ( L 3.4.3.~ x D [ _ 3.[ Z d./.Y.Y.Y.!.Y.Y.Y.!.",
"!.L.4.H 7.[ ^ B 0 t y v 2.3.3.D [ 4.3.[ m z x v./.Y.Y.Y.Y.Y.Y.Y.",
"Y.!.x.v u 3.2.r P 2.[ ^ ) F 3.] ~ 3.4.F x m l C J.!.Y.Y.Y.Y.Y.Y.",
"Y.Y.!.{ w I 4.! H 4.2.4.3.Z m 3.[ ^ G N x x m z ! J.Q.Y.U.Y.Y.Y.",
"Y.Y.!.<.h D 4.) N ^ H A ) F m 3.3.[ Z x x x x m l ! J.)._.!.Y.Y.",
"Y.Y.~.k.S G [ ) z D K z.7._ [ 3.3.4.^ x x x c n m l { r.g S.(.Y.",
"Y.Y.!.C.&.D.q.) c V r.).V.` [ 3.3.3.D x m x x x x n x 3 X ; a.).",
"Y.Y.!.I.y.E.9.A x x l.D.| ) 2.3.2.2.m x x x x x x x c N n % O t.",
"Y.Y.!.L.7.| Z x x z l Z ` 3.3.2.4.^ x x x x n x x x x x m z $   ",
"Y.Y./.G. .) Z x N ) ^ 3.4.3.3.3.3.F x x x c x x c x x x n c 2 X ",
"Y.(.s.d 3.3.3.) ` 6.F _ 3.3.3.3.3.N x x x x x c x x x x x N 5 X ",
"^.Z.1 $ ] 3.3.4.] n n D 3.3.3.3.^ x x x c x x n x x x x x V 5 o ",
"_.u.@ : / 4.] 3.N 4 x _ 3. .3.D x x x x x n x x x x x c x W 9 + ",
"R.+.+ = r 4._ G m m ^ 3.3.3.[ _ m x x x x x x x c n x x n E 7 # ",
"G.O.@ : = b 4.[ ] 2.3.3.3.3._ ) _ m m ) F x x n x x n x L f : = ",
"B.O.+ : $ < | 4.4.3.3.3.4.3.3._ F [  .4.~ x x x x x x k E p # : ",
"B.X.+ : - = v 2._ ] _ ~ ^ ~ F [ _ ) 3.3.G x x x x x n W R < = : ",
"n.s @ : - - , b ) ~ ) ] ]  . . .[ _ 3.3._ D x x x x L R 7 # = = ",
"B.f + : = = & e 5.3.4.3.4.3.4.4.^ _ 3.3.3.F x x c n E a = = = = ",
"B.#.+ : = : = : ' 4.3.2.3.2.[ ) F  .3.3.G x x x x W T : = = = : ",
"n.p.> = = : : + y 4. .3. ._ G D  .3.3._ x x x n Q o.6 + : = = = ",
"b.b.i + : = : + i 0.2.3.3.3.3.3.3.4._ c x x n %.,.q + : = = : = ",
"b.m.g @ : = = = * #.w.[ 2.3.3.3. .^ x x x V *.:.8 = : = = = = : ",
"b.n.>.= = = = : = < p.h.8...^ Z c z x x ! :.;.p # = = = = = = = ",
"b.n.p.> = : = = : + d m.n.1.P P P P Y =.,.o.6 # - = : = = = = = ",
"b.b.b.8 + : = = = = = g b.k.:.:.:.:.:.:.T < # - - = = = - = = : "
};
