/* XPM */
static char *a12ef66df04643cbd67180785a6537f8T2FcFHb2nZrntHCb[] = {
/* columns rows colors chars-per-pixel */
"64 64 256 2 ",
"   c #0B0B0C",
".  c #070405",
"X  c #140A09",
"o  c #0E0E11",
"O  c #090E19",
"+  c #131314",
"@  c #161619",
"#  c #1A1A1C",
"$  c #191719",
"%  c #121114",
"&  c #251A17",
"*  c #1D1E21",
"=  c #151B26",
"-  c #141B32",
";  c #1E2229",
":  c #1A2335",
">  c #232225",
",  c #252529",
"<  c #29272B",
"1  c #2A2A2D",
"2  c #28272A",
"3  c #342C2B",
"4  c #2D2D31",
"5  c #252A37",
"6  c #313134",
"7  c #35353A",
"8  c #333033",
"9  c #29201F",
"0  c #473430",
"q  c #51463B",
"w  c #162653",
"e  c #2B344A",
"r  c #343746",
"t  c #343C56",
"y  c #283251",
"u  c #041669",
"i  c #00147B",
"p  c #021776",
"a  c #051267",
"s  c #152968",
"d  c #09257A",
"f  c #153075",
"g  c #263A67",
"h  c #293A75",
"j  c #2D2D6F",
"k  c #0A1753",
"l  c #563470",
"z  c #324976",
"x  c #5A4F48",
"c  c #65574C",
"v  c #6B5C54",
"b  c #6F514D",
"n  c #6E6055",
"m  c #776658",
"M  c #4C5078",
"N  c #6B506F",
"B  c #796F6C",
"V  c #DA6C36",
"C  c #E37B23",
"Z  c #EB7E1A",
"A  c #B67255",
"S  c #865673",
"D  c #897667",
"F  c #927D6C",
"G  c #8A756F",
"H  c #AD6C72",
"J  c #9F6054",
"K  c #D66B51",
"L  c #C9716F",
"P  c #DD7453",
"I  c #F5982A",
"U  c #EE9132",
"Y  c #F3A635",
"T  c #E59627",
"R  c #998675",
"E  c #97806E",
"W  c #A5917E",
"Q  c #AD8D72",
"!  c #D78757",
"~  c #EF924C",
"^  c #F3B349",
"/  c #D18F69",
"(  c #EC956D",
")  c #EEB470",
"_  c #D2A97B",
"`  c #FACA57",
"'  c #F7C955",
"]  c #FFD569",
"[  c #FBCA71",
"{  c #001683",
"}  c #011A84",
"|  c #011C8C",
" . c #00168B",
".. c #011C93",
"X. c #031997",
"o. c #032483",
"O. c #032B8C",
"+. c #0C2C8B",
"@. c #082688",
"#. c #132B89",
"$. c #0A338D",
"%. c #163489",
"&. c #042393",
"*. c #022B94",
"=. c #0B2A94",
"-. c #0C2B9B",
";. c #072797",
":. c #122E9B",
">. c #142D95",
",. c #0D3394",
"<. c #04339B",
"1. c #0C339C",
"2. c #0D3B9C",
"3. c #073594",
"4. c #123394",
"5. c #13339C",
"6. c #133B9D",
"7. c #193A97",
"8. c #233C99",
"9. c #272F8A",
"0. c #0B3BA4",
"q. c #0A38A6",
"w. c #123CA4",
"e. c #1B3CA3",
"r. c #133DAA",
"t. c #1837A6",
"y. c #1534A9",
"u. c #233AA7",
"i. c #14429D",
"p. c #1A459A",
"a. c #1B418C",
"s. c #24479A",
"d. c #2C539C",
"f. c #374E91",
"g. c #1442A5",
"h. c #1A44A3",
"j. c #1443AB",
"k. c #1B44AD",
"l. c #1B4AA8",
"z. c #1E52A9",
"x. c #1C44B3",
"c. c #1D4BB3",
"v. c #1947B5",
"b. c #184BB1",
"n. c #2443A4",
"m. c #274AA7",
"M. c #344BA7",
"N. c #2955AA",
"B. c #3557A9",
"V. c #254BB5",
"C. c #314DB7",
"Z. c #2452B2",
"A. c #2C5AB4",
"S. c #2856B9",
"D. c #345CB3",
"F. c #3759B8",
"G. c #3B63A8",
"H. c #2E62B7",
"J. c #3964B9",
"K. c #48548F",
"L. c #6E7090",
"P. c #455AAB",
"I. c #4667A8",
"U. c #4669B9",
"Y. c #4B74B9",
"T. c #5777B9",
"R. c #566DAA",
"E. c #6975AA",
"W. c #665C8E",
"Q. c #2A59C3",
"!. c #375CC2",
"~. c #264FC3",
"^. c #3C6CC3",
"/. c #3A66C6",
"(. c #3A6FC8",
"). c #1F53C0",
"_. c #425DC3",
"`. c #4569C6",
"'. c #4775CA",
"]. c #5578C9",
"[. c #4778D5",
"{. c #567BD5",
"}. c #4D6BCA",
"|. c #5977D5",
" X c #8D718C",
".X c #AC728E",
"XX c #896CA5",
"oX c #D87F83",
"OX c #798595",
"+X c #6F89BA",
"@X c #5C83BD",
"#X c #5883CA",
"$X c #5886D6",
"%X c #5388DA",
"&X c #6889C7",
"*X c #7995CA",
"=X c #648BD9",
"-X c #6893D8",
";X c #789AD8",
":X c #758ECE",
">X c #5888E7",
",X c #6C99E3",
"<X c #749AE7",
"1X c #7092EB",
"2X c #79A5ED",
"3X c #7DA3DD",
"4X c #969699",
"5X c #8C888B",
"6X c #AB9786",
"7X c #B39B89",
"8X c #A99399",
"9X c #B9A592",
"0X c #9091AE",
"qX c #98A4B4",
"wX c #A6A6A9",
"eX c #A9ABB5",
"rX c #B6B6B8",
"tX c #B1ACAD",
"yX c #AF94A5",
"uX c #CCAB92",
"iX c #CFB4AF",
"pX c #D8989B",
"aX c #F9D089",
"sX c #E2C4B8",
"dX c #8699C9",
"fX c #899CD3",
"gX c #87A4D7",
"hX c #95ABDA",
"jX c #95AED3",
"kX c #B8BBC4",
"lX c #AABADC",
"zX c #B3B4D2",
"xX c #99B5E4",
"cX c #8CACE9",
"vX c #A8BBE4",
"bX c #ACBCF0",
"nX c #839DF2",
"mX c #D2B7CC",
"MX c #BDC3CE",
"NX c #B6C6E7",
"BX c #AEC4EB",
"VX c #C5C6C8",
"CX c #C8CBD5",
"ZX c #CED1D7",
"AX c #D6D6D9",
"SX c #D1CED0",
"DX c #CBD5EB",
"FX c #D9DCE9",
"GX c #CAD8F2",
"HX c #D3DCF2",
"JX c #C6CEE9",
"KX c #DBE3F0",
"LX c #E6E5E8",
"PX c #E5E9F4",
"IX c #F2F2F8",
"UX c #E7D4DD",
/* pixels */
"X.X.X.X.;.X.X...&.q.b.Q.).j.q.j.j.q.<.b.Z.<.y.>.7.=Xm.#.t.t.C.C.u.u.u.u.u.8.|.].a.=X].M.T.M.u.].nXP.M.|.U.P.C.B.P.C.C.B.B.B.P.`.",
"X.X.X. ...X.y.x.~.Z.j.g.g.q.q.q.i.z.Q.g.S.1.y.=.B.,X=Xm.#.u.u.C.t.u.u.u.u.u.U.1X7.|.].B.<XM.n.P.}.M.M.u.M.M.M.M.M.C.P.U.].{.{.$X",
".. ...-.x.~.).j.q.<.q.<.<.i.b.A.i.%X%XH.V.w.-.=.J.-X-X$Xm.#.7.!.u.u.u.u.u.u.u.=X=X=XF.m.U.M.n.u.M.n.M.m.N.D.J.`.].{.{.{.}.U.U.J.",
":.u.n.n.7.$.*.$.<.<.0.Z.Q.g.%X(.H.(.i.%XS.k.;.>.Y.-X-X-X1Xn.>.C.u.t.u.u.u.u.8.M.U.m.s.n.u.u.n.M.M.B.U.}.'.].[.'.`.J.J.D.J.U.F.`.",
"8.f h z h h z f f d z.%Xz.z.(.p.z.'.z.(.^.c.=.5.$X{.`.B.u.e.5.n.C.5.u.u.u.u.u.u.5.7.7.n.Z.F./.'.}.[.'.^.J.D.N.D.J.P.G.P.P.B.U.J.",
"z W.L.OXB L.4X+X+Xf.f J.z.z.(.#X'.'.H.z.[.Z.1.5.u.4.#.=.:.:.t.e.!.>.t.5.t.5.t.V.V.!.`.}.`.(.J.H.A.Z.S.D.A.A.B.B.P.I.K.R.L.E.U.J.",
"5X4X5XG B 5X6XtXwXqXK.G.@X(.(.H.z.'.(.i.[.Z.j.;.=.-.>.:.:.:.:.=.C.2.0.k.Z.!.!.`.`./.D.Z.Z.Z.Z.Z.A.S.Z.A.D.G.R.E.N B H uXiXwXE.J.",
"6XR E D R 6X9XuX9X9XqXz f H.(.(.z.(.(.%X(.g.V.*.:.-.-.;.-.:.t.k./.J././.!.Q.Z.V.l.l.Z.Z.Z.V.S.A.N.U.U.f.K.+X0X8X7XuXaXaXuX6XdXG.",
"7XW E D E W 9XuX9X9XtX5XG.H.(.H.[.Q.i.b.j.<.c.q.*.-.w.v.S.Q.Q.).S.Q.b.l.k.l.V.V.Z.m.N.z.N.Z.Z.N.G.gX+Xz B 4XQ _ ) [ aXaX[ 6X@Xd.",
"uX9XQ D E 7X7X9X9X7XtXeXK.J.z.O.g.3.3.<.g.b.S.Q.S.Q.~.).b.b.j.g.j.S.j.k.k.c.c.c.l.].<X-XA.N.d.I.+X0XG E _ aX] ] ] ) ' aXaX6XOXG.",
"iX9XR m E 7XE m m 6X9X0Xz d 3.<.0.g.c.Q.c.v.v.Q.r.q.q.r.j.0.j.b.j.Q.b.b.v.k.v.h.H.2XG.-X#Xs.f.N R Q _ _ [ [ ] ' ] ' ' ] ) Q qXY.",
"W W E m D 6XE m D W 6Xx h s.V.c.x.x.y.-.*.&.&.c.j.0.r.0.b.j.g.j.j.S.Z.j.c.k.x.h.H.2Xp.Y.<Xf.W.yXuX) [ ^ ^ ] ' Y ` ] ] [ ^ Q 4X@X",
"W E D n m 7XuXW uX6X6XG R.%.#..... .{  ...-.@.w.c.q.r.q.(.'.i.i.j.b.).b.b.j.c.h.d.2XG.H.2XG.W.9XpX) ] Y Y ' ' T ' ' ' ] ' Q 0XI.",
"E E D n m W 9XiX9X7XW tXE.a i  . .>.C...u.}.!.*.V.q.0.0.'.-X(.i.j.j.Q.b.j.j.x.l.i.2XY.d.3XI.z B A / ) ^ Y Y ' ' ' ^ T ^ [ Q W.K.",
"D D m n m E W W 6X7X6XyXK.a n.}.6.!.U.D.`.n.n.&.v.j.q.g.%X%X%X(.g.g.b.b.j.v.x.k.i.%X,Xp.3XG.&X+XM m K ~ Y I Y Y Y Y I Y ^ / N G.",
"m m n n m D R R W 7X7X5Xj a _.V.F.F.n.J.D.`.`.m.<.b.<.H.%X%X%X%XS.g.b.b.r.j.k.j.l.z.-X,X-Xz.J.Y.h v J ~ I I I T T I I Y ~ / L.R.",
"n n n c m E R R R n v L.j u #.{ _.7.U.J.B.'.p.}.,.V.<.S.S.b.j.g.j.q.b.).r.j.k.k.l.l.h.N.h.t.u.8.M S ! U U I I I Y Y Y Y ^ /  XR.",
"c c c c c m R R F v G L.K.p { >.`.p U.+./.}.p.`.r.r.r.<.<.<.q.j.q.j.j.).j.0.r.w.r.g.b.k.Z.!.P.R.W.H ( U I I I U ~ ~ U U ~ / N M ",
"c x c c c m E E n v B M P.} #.m._.7.!._.`.u.!.!.;.q.v.q.q.q.q.q.q.j.g.b.b.c.Q.Q.Q.!.!.!.F.F.M.l H P U I I Z U ! J J L ( ~ / N K.",
"x q q q c n m R G G 4Xw M.u.u.C.F.F.=.5.=.} }  . .<.v.r.b.v.v.c.).).Q.Q.Q.c.x.t.w.6.q.:.:.#.j l L P Z Z Z Z P J S b b H / uX XK.",
"c q q q q c n D 6XiXL.k p @.} } i { | ..;.y.y.r.v.v.Q.v.x.r.r.y.<.;.;.-.V.| ;.:.=.=.:.:.>.9.l H ! C I I U ~ A 8XXXdXR.N 8X X0XfX",
"m q q q 6 0 x n 5X0Xz p >.-.5.t.u.V.x.v.x.x.r.r.j.<.v.q.......;.;.;.X.;.V.-.-. .m.C.>.:.9.9.S pX~ C ~ U ~ ! F 0Xz G.B.K.E.9.R.;X",
"m c c x q 2 ; t M z s.7.h.w.w.2.q.-.;.;.<.*.<.;.<.<.q.j..... .| @.@.-.&.V.y.&.B.nX|.=.9.j l L ( ~ C Y U ! J L.*XR.=XY.8.%.R.;X@X",
"B m n n x x 6 e w d +.*.&.*.*.*.*.*.r.v.<.Z./.0.S.[.Z.k.&.:.!./.`.[.!.&.r.u.| n.`.1XX.9.l S ( P ~ C ~ ( H .XW.3XY.I.nXB.7.N.I.;X",
"m n m m n q t g f a.O.3.*.O.S.(.j.O.(./.H.^.N.J.(.z.A.g.-.| !.=X$X$Xm.| -.u.-...9.nX9.j l L ( P ~ ~ P A N 0XR.;Xd.f <XY.].M.%.;X",
"E B m m n x OXz s d o.O.O.O.m.g./.O.6.3.^.N.J.(.H.(.(.S.r...} C.$X[.=.....V.-.;. .1XP.l .XP P P ~ ~ L J N gXB.].-XJ.2XB.=X-X#X-X",
"7 R D B n m VXOXw s s d d $.O.7.J.O.o.l.J.3.(.p.(.^.i.(.e.&... .F.!...;.X.u.y.-.X.|.XXl oXP K V ~ ( H XXE.{.7.7.`.}.B.7.7.D.U.s.",
"+ B rXD B tXPXOX: y g g f s d N.D.$.i./.H.z.^.D.(.H.(.(.r.-...X.&.;...X.X.y.u.X.X.9.S .XK K K V K H N j #.#.5.5.$.,.5.e.e.6.7.e.",
"* # rXAXqXNXKXOX1 r 5 e t y s z G.d.n.l.A.Z.3.z.2.*.j.<.q.t.X.....X.....X.;.x.;.9.9.S L K K K K L  Xf.u.Z.S.C.F.!.S.F.!.!././.`.",
"* + e qX@XOXqXOX2 7 4 4 6 5 t t g g f $.3.3.w.1.w.j.y.r.x.V.u.y.r.r.x.v.).v.Q.C.C.l .XL K K K L .Xl f.C.Z.Z.Z.Z.Z.Z.Z.Z.Z.Z.Z.m.",
"; * * e OX@Xz z 7 7 6 4 4 5 4 r r t g f %.:.5.5.1.-.-.-.&.e.r.q.r.y.q.q.q.q.k.7.9.XXH J K K L .XM 9.9.t.g.i.p.h.l.i.h.l.l.m.h.z.",
"2 * * : g G.jXM : 7 6 1 5 1 6 6 4 r g w u { i { { } } { } &.x.<.<.q.q.r.w.w.n.B.W..XL L L L .XW.W.U.D.m.J.#X'.N.A.$X$X^.D.%X$X#X",
"1 2 ; ; : z jXOX: 7 6 4 2 2 6 1 < r r j a #.P. .C.F.>.F.F.e.w.0.q.q.g.h.h.l.m.R.XX.XpXpXoX.XXXW.fXY.-X`.3XY.3X@X-X-XY.3XY.Y.Y.#X",
"6 6 2 > : : OXOX; 7 6 4 2 1 6 1 < 8 e h u >._.8.M.D.7.F.m.n.6.k.r.r.J.#XB.G.P.0XyXoXpXpXpX.XL.E.:XP.3X;X@XY.3X*X@X3X@X3XY.G.G.%X",
"6 4 4 2 ; : e OX5 6 6 4 1 1 6 2 1 7 7 t h a #.P.@.n.N.P.F.D.S.m.z.B.-XcX1XE.dXzXmXpXpXsXmXXXXX|.xX+XgXxX+XjXBX*XjXxXjXxX*X@X@XxX",
"; 1 ; 6 ; ; ; r 5 6 6 6 1 1 3 2 < 5 5 r j 9.p C.#.8.m.`.D.B.}.F.D.#XxXxXbXvXmXmXsXmXiXmXmXfXcXhXBXxXvXNXBXGXNXlXlXNXjXxXBX*XjXxX",
"> 2 2 ; 1 4 ; 4 4 6 4 4 1 1 6 > < 5 1 r g f p #.#.=.m.4.7.J.N.I.].:XhXlXlXDXUXUXUXUXUXUXDXNXNXGXNXHXGXDXHXKXDXGXGXHXGXGXBXlXBXxX",
"# 2 4 6 1 2 6 4 4 4 1 4 1 4 6 * < < 4 5 y s #.#.@.@.@.$.3.a.d.T.*XhXlXJXFXPXPXIXUXIXIXLXLXKXKXKXKXPXPXPXPXKXZXMXKXKXKXKXDXDXNXlX",
"# > 2 6 6 1 2 6 4 6 4 1 1 6 6 + , , 1 4 e g +.5.,.3.5.h.m.J.].*XxXNXJXDXFXFXIXUXVXVXIXLXKXFXPXPXPXLXKXFXIXLXFXwXKXLXKXKXKXDXZXZX",
"+ > > 2 4 6 6 > 1 6 1 1 1 4 6 $ > > 1 6 5 g %.O.i.$.2.$.s.B.T.*XlXNXzXZXSXCXmXSXLXrXVXAXVXZXVXFXAXMXCXAXMXZXAXwXZXAXkXVXZXVXCXlX",
"+ > 2 2 2 1 6 6 $ 2 6 2 1 4 4 # # # 2 1 4 t a.#.H.A.H.a.U.J.gXhXBXNXFX4XOXrXwXrXVXE MXkXR wXAXwXAXrX5XrXAXwXLX5XVXrXwXAX4XOXwXwX",
"# > > > > 1 1 6 2 o ; 1 1 1 6 > @ $ > 1 6 e z f.m.H.H.d.Y.I.gXvXNXZXMXVXVXrXVXSXVX4XAXwXVXAXAX4XSXwXrXAXVX4XAXVXrXOXAXVXVXVXrXwX",
"# # > > > 2 2 1 6 *   # 1 3 4 3 + @ * 2 2 r e f.J.A.J.J.J.Y.gXxXNXHXVXtXrXZXrXVXVXwXLXwXAXLXAX4XVXrXSXLXVX4XLXeXVXwXLXAXtXrXZXrX",
"* > * > > > > 1 < 1 @   > 3 9 2 X X # > 1 7 r t I.J.i.J.J.G.*XjXNXDXCXVXeXiXVXwXSX4XVXVXrXAXAXOXSXrXSXLXSX5XPXB wXAXtXAXVXtXrXVX",
"1 6 6 6 6 6 1 6 6 6 1 & < 4 c x & X & 9 , 6 6 e z Y.H.2.m.B.].:XBXGXzXmXVXrX4XeXSXrXeXMXkXVX4XwXZXwXZXFXrX4XZXeXVXMXeXeXVXZXMXOX",
"> 1 6 6 6 6 6 6 7 7 7 7 7 4 v sX7Xb & & * ; > : g I.'.Q.p.m.}.:XbXGXCXzXeXqXCXPXkXeXZXMXeXqXkXAXZXMXKXKXMXZXCXCXPXCXMXMXkXqXqXrX",
"* 1 1 1 1 6 6 1 6 7 8 8 8 8 3 sXsXpXx X 2 , 3 r e f.(.[.S.4.C.:XxXvXJXHXDXGXHXFXHXGXGXKXHXDXDXDXGXGXDXDXDXDXDXDXHXDXZXJXDXNXlXjX",
"* 1 1 1 1 1 1 1 1 < < 1 5 8 2 .XsXaXF & 3 , , 4 w z {.[.1X}.{.2XfXxXbXbXvXvXlXlXNXMXNXNXNXBXBXlXxXlXvXBXBXBXBXNXBXNXNXBXBXBXjX*X",
"> 1 > 1 < , , , , < 1 4 4 8 8 0 G H 0 3 1 3 1 ; 5 y d.{.>X>X[.1XnXcXcX;X:XfXvXlXlXhXdXgXfXdXgXgX*X*X:X:X+X*X*X*X*X*X*XgX*XgX*X&X",
"2 > 2 > , , , , < 5 4 4 4 4 4 3 & & & < 2 , 4 7 5 w %.F.>X>X>X>X<X<X-X].T.I.&XcXcX&XT.&XT.T.3X&X;XI.U.T.;X&XY.&X:X+XY.@X#XY.U.U.",
"; > > > , , < 1 4 4 4 4 4 4 4 3 9 , , < 1 1 < 4 4 e g @.v.[.[.>X>X{.`.F.B.M.d.Y.].B.N.G.U.B.=XN.&XJ.n.H.$X#XN.=XG.-XY.#X&X#XJ.N.",
"# * ; 2 , 1 1 < 1 4 1 1 < 1 < < < < < < < 1 4 < > e g #.q.).[.[.[.S.,.3.h.7.p.7.7.i.i.h.N.i.`.H.^.J.2.2.N.{.i.p.z.-XJ.#XN.J.$Xp.",
"+ # & # > 2 9 > > > 9 * < 4 < 1 < < < < < < < < > : z f o.<.Q.[.~.q.q.w.l.m.p.e.p.6.6.6.k.2.,.D.^.h.!.k.g.%Xg.i.%XH.$.%XH.p.%XH.",
"        X X X & + # # # > < , , $ $ $ $ = * ; ; 5 : g f.O.Z.S.Q.Q.r.O.O.4.2.} @.+.,.5.5.V.n.g.6.2.,.q.1.*.c.<.k.(.A.H.S.(.H.%XH.",
"3 q 3 0 0 0 & . . o   % o % $ , < , , , , > 9 ; : w a.d.p.d l.Z.3.F.3.D.Z.,.} i i i i } | 7.| ;.=.:.t.t.r.r.r.q.<.g.j.<.b.b.g.i.",
"+ 0 x m D D b X       o o o + @ * > , < : : ; w s s f M.p.7.J.p.2.N.D.H.F.7.@.i @._.#.i } 7. . .=.=.{  .X.&.;.y.q.0.j.j.g.g.g.g.",
". . . X & 9 3 $ X % + o + + @ @ @ @ @ = w w k k s d #.#.#.>.4.s.p.s.N.p.D.N.@.i F.=X{.>.i >.} 8._.C.u.{  .-.t. .{ | &.| ;.;.y.y.",
". . . . . . .   + + @ @ $ $ # # # # O e h s u a i i u i p @.o.o.+.$.+.+.4.7.4.p #.7.M.F.@.=.>.>.F.#.}.i | C.|.| m._.C.-.O.e.;.| ",
"        . . . . $ $ @ @ @ @ # +   O = - w f +.p a i i i i i i #.d d o.#.+.+.e.4.o.} i i } } 5.i F.8._.>. .} }.-.C.F.n././.F.F.C.",
"o     o   . . . % @ @ @ O O ; % o % = - s +.%.p a i i i i i a M.M.u.p 7.d #.o.e.,.5.4.4.>.#.u.| @.n.u.>.C.{ _.m.| F.Z.}.}.l.1.{.",
"      o       .   @ + O : e = # @ # ; : w u #.7.} @.p i u i u @.M.B.8.8.%.U.@.>.*.2.,.O.O.$.e.w.6.1.=.=.;.| -.-. .m.V./.Z.!.4.$X",
"  o o o     . .   + + O t M = = * * ; = h B.#.#.#.@.#.>.+.+.} p %.8.d.7.4.F.M.4.,.2.(.'.H.2.3.2.&.1.;.6.t.t.6.5.5.;.5.*. .n.C.F.",
"o o + o o         o @ = g M e = ; * > - k P.s.p $.o.o.o.d $.%.+.+.+.#.o.+.7.7.n.,.o.3.'.J.O.3.w.O.g.A.1.*.*.3.<.q.2.w.y.r.-.-.&.",
"+ + + o       o   + + O g z t ; * , , ; w a p d +.o.d o.o.4.N.7.+.+.4.+.#.+.@.+.4.$.o.3.$.O.O.w.3.<.'.c.*.<.g.Q.w.<.<.-.q.q.r.k."
};
