/* XPM */
static char *_8e305c21f0148629233684bcb702282wMnhHtYN75ZoScFz[] = {
/* columns rows colors chars-per-pixel */
"64 64 127 2 ",
"   c None",
".  c #664500",
"X  c #684702",
"o  c #6C4A03",
"O  c #704E05",
"+  c #735107",
"@  c #765308",
"#  c #79560A",
"$  c #7C590B",
"%  c #835E0E",
"&  c #876211",
"*  c #8B6613",
"=  c #8E6914",
"-  c #926C16",
";  c #956E18",
":  c #977019",
">  c #9C751C",
",  c #A27A1E",
"<  c #A67D20",
"1  c #AC8323",
"2  c #B38927",
"3  c #B68B28",
"4  c #B98E2A",
"5  c #BE932D",
"6  c #F48F0B",
"7  c #F4900C",
"8  c #F59512",
"9  c #F69916",
"0  c #F69C19",
"q  c #F99E1A",
"w  c #F7A11F",
"e  c #C2952D",
"r  c #C4982F",
"t  c #C69A31",
"y  c #CA9E33",
"u  c #CDA034",
"i  c #D2A437",
"p  c #D5A738",
"a  c #D6A839",
"s  c #DCAD3B",
"d  c #DFB03D",
"f  c #E6A62D",
"g  c #F7A220",
"h  c #F8A523",
"j  c #F9A927",
"k  c #F9AB29",
"l  c #FBB12F",
"z  c #E3B43F",
"x  c #E2B33F",
"c  c #FBB231",
"v  c #F8B232",
"b  c #FCB230",
"n  c #FBB534",
"m  c #FBB635",
"M  c #FBB636",
"N  c #FBB736",
"B  c #FBB737",
"V  c #FBB838",
"C  c #FBB938",
"Z  c #FDBA39",
"A  c #FCBC3C",
"S  c #FDBF3F",
"D  c #FCBC3B",
"F  c #E4B540",
"G  c #E5B540",
"H  c #E6B640",
"J  c #E6B641",
"K  c #E6B741",
"L  c #E8B741",
"P  c #E8B841",
"I  c #E9B942",
"U  c #EBBB43",
"Y  c #ECBB44",
"T  c #ECBC44",
"R  c #EFBE45",
"E  c #E9B942",
"W  c #F0BF46",
"Q  c #F1BF46",
"!  c #F1C046",
"~  c #F2C146",
"^  c #F3C247",
"/  c #F4C247",
"(  c #FCC041",
")  c #FDC141",
"_  c #FDC242",
"`  c #FDC343",
"'  c #FDC444",
"]  c #FEC444",
"[  c #FEC647",
"{  c #FEC747",
"}  c #FDC343",
"|  c #F4C248",
" . c #F4C348",
".. c #F5C348",
"X. c #F6C449",
"o. c #F6C549",
"O. c #F7C549",
"+. c #F7C649",
"@. c #F6C449",
"#. c #F8C649",
"$. c #F8C74A",
"%. c #F9C74A",
"&. c #FEC748",
"*. c #F9C84B",
"=. c #FAC84B",
"-. c #FBC84B",
";. c #FBC94B",
":. c #FEC848",
">. c #FEC949",
",. c #FFCA4B",
"<. c #FFCB4B",
"1. c #FCCA4C",
"2. c #FDCA4C",
"3. c #FCCB4C",
"4. c #FDCB4C",
"5. c #FDCB4D",
"6. c #FFCB4C",
"7. c #FECB4D",
"8. c #FDCC4D",
"9. c #FECC4D",
"0. c #FFCC4D",
"q. c #FECD4D",
"w. c #FFCD4D",
"e. c #FFCD4E",
"r. c #FFCE4E",
"t. c #FFCF4F",
"y. c #FFCC4D",
/* pixels */
"                                                                                                                                ",
"                                                                                                                                ",
"                                                                                                                                ",
"                                                                                                                                ",
"                                                                                                                                ",
"                                                                                                                                ",
"                                                                                                                                ",
"                                                                                                                                ",
"                                              . . . . X .                                                                       ",
"                                          X . . X . . . . . &                                                                   ",
"                                    o . . . . . . . . . . . o 3 8.8.  8.8.                                                      ",
"                            8.s , + X . . . . X . . . . . X . o y 8.8.8.8.8.8.8.8.                                              ",
"                          8.t @ . . . . . . . . . . X . X . . . $ z 8.8.8.8.8.8.8.8.8.8.                                        ",
"                        8.s + . . . . . . . . . . . . . . . . . . : o.8.8.8.8.8.8.8.8.8.8.8.8.                                  ",
"                      8.e.1 . . X . . . . . . . o $ o . . . . X . X t 8.8.8.8.8.8.8.8.8.8.8.8.8.8.8.                            ",
"                    8.8.8.< . . . . . . X . . = s ~ u + . . . . . . * | 8.8.8.8.8.8.8.8.8.8.8.8.8.8.8.8.                        ",
"                    8.8.e.t X . . . . . . . o r i p I 2 X . . . . . X i t.8.8.8.8.8.8.8.8.8.8.8.8.8.8.8.8.8.                    ",
"                  8.8.8.8.| ; . . . . . . . o + X X $ e * . . . . X . r t.8.8.8.8.8.8.8.8.8.8.8.8.8.8.8.8.8.8.                  ",
"                  8.8.8.8.8.Q 3 * o . . . o . . . . . $ e @ . . . . $ x 8.8.8.8.8.8.8.8.8.8.8.8.8.8.8.8.8.8.8.8.                ",
"                8.8.8.8.8.8.8.8.o.s 1 * ; > . . . . . X y y @ . . O r 8.8.8.8.8.8.8.8.8.t.8.t.t.t.8.t.8.8.8.8.8.8.              ",
"                8.8.8.8.8.8.8.8.8.8.8.-.5.p o . . . . o s 8.F r 5 d 8.8.8.8.t.8.8.o.~ z x d i 1 1 1 5 Y 8.8.8.8.8.8.            ",
"              8.8.8.8.8.8.8.8.8.8.8.8.8.8.#.- . . . . * ~ 8.8.t.8.8.8.#.R P a 5 1 = $ + O o X . . . . % s 8.8.8.8.8.8.          ",
"              8.8.8.8.8.8.8.8.8.8.8.8.8.8.e.F = O o * x 8.8.8.8.8.*.5 * $ + X . . . . . . . . . . . . . = / 8.8.8.8.8.8.        ",
"              8.8.8.8.8.8.8.8.8.8.8.8.8.8.5.e.| F s ~ 8.8.8.8.8.8.2 X . . . . . . . . . . X . . . . . . X s 8.8.8.8.8.8.8.      ",
"            8.8.8.8.8.8.8.8.8.8.8.8.8.8.8.8.8.8.e.e.8.8.8.8.8.e.I $ . . . . . . . . . X . . X . . . . . o s t.8.8.8.8.8.8.      ",
"            8.8.8.8.8.8.8.8.8.8.8.8.8.8.8.8.8.8.8.8.8.8.8.8.8.8.i X . . . X . . . . . . . . . . . . . . ; #.8.8.8.8.8.8.8.8.    ",
"            8.8.8.8.8.8.8.8.8.8.8.8.8.8.8.8.8.8.8.8.8.8.8.8.8.8.z O . . . . X . . . . . . . . . . . O ; K 8.8.8.8.8.8.8.8.8.8.  ",
"            8.8.8.8.8.8.8.8.8.8.8.8.8.8.8.8.e.e.8.t.t.8.8.8.8.8.5.1 X . . . . . . . . . X . . % 3 y d #.8.8.8.8.8.8.8.8.8.8.8.  ",
"          8.8.8.8.8.8.8.8.8.8.8.8.8.8.8.8.#.y 1 1 5 s | 8.8.8.8.8.#.r - % = ; < : o . . . . . 1 t.t.8.8.8.8.8.8.8.8.8.8.8.8.8.8.",
"          8.8.8.8.8.8.8.8.8.8.8.8.8.8.8.o., . . . . o % < u Y 5.8.8.5.5.| -.5.5.| & . . . . . y 8.8.8.8.8.8.8.8.8.8.8.8.8.8.8.8.",
"            8.8.8.8.8.8.8.8.8.8.8.8.8.e.y X . . . . . . . X $ > y I 5.8.8.8.5.5.e.u o . . . > o.8.8.8.8.8.8.8.8.8.8.8.8.8.8.8.8.",
"            8.8.8.8.8.8.8.8.8.8.8.8.8.e.1 . . . . . . . . . . . . $ : r I 5.8.8.8.5.a < : 3 o.t.8.8.8.8.8.8.8.8.8.8.8.8.8.8.8.8.",
"              8.8.8.8.8.8.8.8.8.8.8.8.8.3 . . . . . . . . . . X . . . . @ : r K *.8.8.8.5.8.8.8.8.8.8.8.8.8.8.8.8.8.8.8.8.8.8.8.",
"              8.8.8.8.8.8.8.8.8.8.8.8.8.L $ . . . . . . X . . . . . . . . . . @ ; r K ;.8.8.8.8.8.8.8.8.8.8.8.8.8.8.8.8.8.8.8.8.",
"                8.8.8.8.8.8.8.8.8.e.5.:.8.a * O . . . . . . . . . . . . . . . . . . + ; 5 F *.8.8.8.8.8.8.8.8.8.8.8.8.8.8.8.8.8.",
"                  8.8.8.8.8.8.8.8._ j 0 g Z / x r , % o . . . . . . . . . . . . . . . . . + - 3 x o.t.8.8.8.8.8.8.8.8.8.8.8.8.8.",
"                    8.8.8.8.8.8.A 9 6 6 6 8 M 8.8.8./ s 2 * O . . . . . . . . . . . . . . . . . O * 1 a | 8.8.8.8.8.8.8.8.8.8.8.",
"                    8.8.8.8.8.8.k 7 7 7 7 6 9 _ 8.8.8.5.8.#.s 3 = o . . . . . X . . . . . . . . . . . o & 5 K ;.8.8.8.8.8.8.8.8.",
"                      8.8.8.8.8.w 6 7 7 7 7 7 k 8.8.8.8.8.8.t.t.| s 3 = O . . . . . . . . . . . . . . . . . @ > u ~ 8.8.8.8.8.8.",
"                        8.8.8.8.h 6 7 7 7 7 6 9 [ 8.8.8.8.8.8.8.8.8.8.#.s 3 = o . . . . . . . . . . . . . . . . X % 1 s #.8.8.8.",
"                        8.8.8.e.M 6 7 7 7 7 7 7 A 8.8.8.8.8.8.8.8.8.8.8.t.8.*.d 3 - + . . . . . X . . . X . . . X . . o = s 8.8.",
"                          8.8.e._ 8 7 7 7 7 7 7 Z 8.8.8.8.8.8.8.8.8.e.e.8.8.8.t.t.*.F r > $ . . . . . . . . . . . . . . . $ K 8.",
"                            8.8._ 9 7 7 7 7 7 7 M 8.8.:.8.8.:.:.:.&.[ _ Q Z V B m l l c b f e > $ . . . . . . . . . . . . . 3 8.",
"                              8._ 8 7 7 7 7 7 7 0 w g w g w g 0 0 9 8 8 8 7 7 7 7 7 7 7 7 7 q _ R t : + . . . . . . X . . . 1 8.",
"                                Z 8 7 7 7 7 7 7 6 6 6 6 6 6 6 6 6 6 7 7 7 7 7 7 7 7 7 7 7 7 6 j 8.8.:.K 3 * o . . . . . . . y e.",
"                                  7 7 7 7 7 7 7 7 7 7 7 7 7 7 7 7 7 7 7 7 7 7 7 7 7 7 7 7 7 7 0 :.8.8.8.8.o.i > @ . . . X < #.8.",
"                                7 7 7 7 7 7 7 7 7 7 7 7 7 7 7 7 7 7 6 7 7 7 7 7 7 7 7 7 7 7 6 0 :.8.8.8.8.8.e.5.P t 1 1 y #.8.8.",
"                                7 7 7 7 7 7 7 7 7 6 7 7 7 7 7 7 7 7 7 7 7 7 7 7 7 7 7 7 7 7 6 j 8.8.8.8.8.8.8.8.e.e.e.8.t.8.8.8.",
"                                7 7 7 7 7 7 7 7 7 7 7 7 7 7 7 7 7 7 7 7 6 6 6 6 6 6 6 7 7 7 0 ] e.8.8.8.8.8.8.8.8.8.8.8.8.8.8.8.",
"                                7 7 7 7 7 7 6 7 7 7 7 7 7 6 7 7 7 8 8 8 0 0 9 0 0 0 0 0 g k [ 8.8.8.8.8.8.8.8.8.8.8.8.8.8.8.8.8.",
"                                  7 7 7 7 7 7 7 7 7 7 7 7 7 7 7 6 g ] [ &.:.:.:.&.:.:.:.5.8.8.8.8.8.8.8.8.8.8.8.8.8.8.8.8.8.    ",
"                                    7 7 7 7 7 7 7 7 7 7 7 7 7 7 7 9 &.8.8.8.8.8.8.8.8.8.8.8.8.8.8.8.8.8.8.8.8.8.8.8.            ",
"                                      7 7 7 7 7 7 7 7 7 7 7 7 7 7 8 _ 8.8.8.8.8.8.8.8.8.8.8.8.8.8.8.8.8.8.8.8.                  ",
"                                          7 7 7 7 7 7 7 7 7 7 7 7 8 _ 8.8.8.8.8.8.8.8.8.8.8.8.8.8.8.8.8.                        ",
"                                                        7 7 7 7 7 q :.8.8.8.8.8.8.8.8.8.8.8.8.8.8.                              ",
"                                                          7 7 7 9 A 8.8.8.8.8.8.8.8.8.8.8.8.                                    ",
"                                                                    8.8.8.8.8.8.8.8.                                            ",
"                                                                                                                                ",
"                                                                                                                                ",
"                                                                                                                                ",
"                                                                                                                                ",
"                                                                                                                                ",
"                                                                                                                                ",
"                                                                                                                                "
};
